<?xml version="1.0" encoding="utf-8"?>
<!-- Generator: Adobe Illustrator 16.0.0, SVG Export Plug-In . SVG Version: 6.00 Build 0)  -->
<!DOCTYPE svg PUBLIC "-//W3C//DTD SVG 1.1//EN" "http://www.w3.org/Graphics/SVG/1.1/DTD/svg11.dtd">
<svg version="1.1" id="Layer_1" xmlns="http://www.w3.org/2000/svg" xmlns:xlink="http://www.w3.org/1999/xlink" x="0px" y="0px"
	 width="30px" height="684.927px" viewBox="0 0 30 684.927" enable-background="new 0 0 30 684.927" xml:space="preserve">
<polygon fill="#FFFFFF" points="27.539,1.676 11.43,69.738 11.464,68.487 24.268,145.48 24.342,145.928 24.277,146.351 
	10.713,235.506 26.143,351.112 26.185,351.43 26.123,351.727 7.283,441.466 7.208,440.681 26.277,487.581 26.398,487.877 
	26.328,488.179 6.443,597.075 6.443,596.9 20.552,684.927 5.441,597.071 5.432,596.984 5.449,596.894 24.211,487.802 
	24.278,488.405 4.715,441.711 4.559,441.337 4.641,440.925 22.551,350.996 22.529,351.611 5.917,235.482 5.87,235.15 
	18.835,145.544 18.846,146.414 5.172,69.569 5.064,68.964 5.205,68.319 20.191,0 "/>
</svg>
