<?xml version="1.0" encoding="utf-8"?>
<!-- Generator: Adobe Illustrator 16.0.0, SVG Export Plug-In . SVG Version: 6.00 Build 0)  -->
<!DOCTYPE svg PUBLIC "-//W3C//DTD SVG 1.1//EN" "http://www.w3.org/Graphics/SVG/1.1/DTD/svg11.dtd">
<svg version="1.1" id="Layer_1" xmlns="http://www.w3.org/2000/svg" xmlns:xlink="http://www.w3.org/1999/xlink" x="0px" y="0px"
	 width="495px" height="130px" viewBox="-333.748 -375.176 495 130" enable-background="new -333.748 -375.176 495 130"
	 xml:space="preserve">
<g>
	<path fill="none" d="M-291.775-342.516c0-7.879-4.553-13.744-14.006-13.744h-8.492v27.575h8.404
		C-297.027-328.685-291.775-335.162-291.775-342.516z"/>
	<polygon fill="none" points="-222.705,-272.23 -220.023,-273.131 -222.705,-276.816 	"/>
	<path fill="none" d="M-233.296-351.707c0-3.151-2.801-4.553-5.777-4.553h-10.768v9.192h10.768
		C-236.097-347.068-233.296-348.469-233.296-351.707z"/>
	<path fill="none" d="M-305.781-290.209h-8.492v21.773l22.328-10.499C-292.825-285.536-297.348-290.209-305.781-290.209z"/>
	<path fill="none" d="M78.702-356.26H70.21v27.575h8.404c8.842,0,14.094-6.478,14.094-13.831
		C92.708-350.395,88.155-356.26,78.702-356.26z"/>
	<rect x="2.734" y="-262.845" fill="#E89F0C" width="15" height="15.426"/>
	<path fill="#FFFFFF" d="M-273.83-342.516c0-18.646-13.656-29.15-32.039-29.15h-26.086v58.389h26.175
		C-287.486-313.278-273.83-323.87-273.83-342.516z M-314.273-328.685v-27.575h8.492c9.453,0,14.006,5.865,14.006,13.744
		c0,7.354-5.252,13.831-14.094,13.831H-314.273L-314.273-328.685z"/>
	<path fill="#FFFFFF" d="M-249.841-331.662h6.391l8.053,18.384h20.135l-10.592-20.659c4.639-2.276,10.504-7.616,10.504-17.684
		c0-10.942-7.354-20.046-21.01-20.046h-31.164v58.389h17.684v-18.384H-249.841z M-249.841-356.26h10.768
		c2.977,0,5.777,1.401,5.777,4.553c0,3.238-2.801,4.64-5.777,4.64h-10.768V-356.26z"/>
	<polygon fill="#FFFFFF" points="-163.876,-328.685 -190.49,-328.685 -190.49,-335.076 -164.49,-335.076 -164.49,-350.482 
		-190.49,-350.482 -190.49,-356.26 -163.876,-356.26 -163.876,-371.666 -208.171,-371.666 -208.171,-313.278 -163.876,-313.278 	"/>
	<rect x="-155.997" y="-371.666" fill="#FFFFFF" width="17.684" height="58.389"/>
	<path fill="#FFFFFF" d="M-99.884-312.227c11.469,0,20.223-4.64,26.699-11.818v-23.898h-28.449v15.407h10.854v2.101
		c-1.838,1.401-5.777,2.627-9.104,2.627c-8.49,0-14.182-6.479-14.182-14.619c0-8.143,5.691-14.619,14.182-14.619
		c5.252,0,9.104,3.677,10.768,7.266l14.881-7.616c-3.676-7.528-11.729-15.231-25.648-15.231c-17.684,0-32.127,11.467-32.127,30.201
		C-132.011-323.783-117.568-312.227-99.884-312.227z"/>
	<polygon fill="#FFFFFF" points="-21.009,-328.685 -47.621,-328.685 -47.621,-335.076 -21.622,-335.076 -21.622,-350.482 
		-47.621,-350.482 -47.621,-356.26 -21.009,-356.26 -21.009,-371.666 -65.304,-371.666 -65.304,-313.278 -21.009,-313.278 	"/>
	<polygon fill="#FFFFFF" points="25.387,-344.004 5.079,-371.666 -13.128,-371.666 -13.128,-313.278 4.553,-313.278 4.553,-342.867 
		26.088,-313.278 43.071,-313.278 43.071,-371.666 25.387,-371.666 	"/>
	<path fill="#FFFFFF" d="M78.614-371.666H52.528v58.389h26.174c18.295,0,31.951-10.593,31.951-29.238
		C110.653-361.162,96.997-371.666,78.614-371.666z M78.614-328.685H70.21v-27.575h8.492c9.453,0,14.006,5.865,14.006,13.744
		C92.708-335.162,87.456-328.685,78.614-328.685z"/>
	<polygon fill="#FFFFFF" points="161.252,-356.26 161.252,-371.666 116.958,-371.666 116.958,-313.278 161.252,-313.278 
		161.252,-328.685 134.641,-328.685 134.641,-335.076 160.639,-335.076 160.639,-350.482 134.641,-350.482 134.641,-356.26 	"/>
	<path fill="#FFFFFF" d="M-291.775-276.465c0,7.354-5.252,13.831-14.094,13.831h-8.404v-4.943l-14.87,6.134l14.87-6.992v-21.773
		h8.492c8.433,0,12.956,4.674,13.836,11.274l16.521-7.769c-4.101-12.202-15.761-18.912-30.445-18.912h-26.086v58.389h26.175
		c18.295,0,31.951-10.593,31.951-29.238c0-2.656-0.286-5.141-0.814-7.459l-17.146,7.072
		C-291.787-276.722-291.775-276.596-291.775-276.465z"/>
	<polygon fill="#FFFFFF" points="-267.525,-286.861 -267.525,-247.227 -249.841,-247.227 -249.841,-280.331 -259.644,-290.112 	"/>
	<polygon fill="#FFFFFF" points="-249.841,-285.89 -249.841,-305.616 -267.525,-305.616 -267.525,-290.417 -258.722,-294.557 	"/>
	<polygon fill="#FFFFFF" points="-222.705,-272.23 -222.705,-276.816 -220.023,-273.131 -202.625,-278.982 -222.179,-305.616 
		-240.386,-305.616 -240.386,-276.662 -232.477,-268.944 	"/>
	<polygon fill="#FFFFFF" points="-184.187,-305.616 -201.871,-305.616 -201.871,-279.235 -184.187,-285.181 	"/>
	<polygon fill="#FFFFFF" points="-240.386,-270.898 -240.386,-247.227 -222.705,-247.227 -222.705,-266.92 -233.189,-263.717 	"/>
	<polygon fill="#FFFFFF" points="-201.169,-247.227 -184.187,-247.227 -184.187,-278.686 -216.812,-268.72 	"/>
	<path fill="#FFFFFF" d="M-155.701-287.056c2.465-2.443,5.879-3.94,9.945-3.94c5.252,0,9.104,3.677,10.768,7.266l14.881-7.616
		c-3.676-7.528-11.729-15.231-25.648-15.231c-13.646,0-25.354,6.834-29.993,18.56l9.965-3.351L-155.701-287.056z"/>
	<polygon fill="#FFFFFF" points="-119.056,-281.893 -143.631,-281.893 -119.056,-271.38 	"/>
	<path fill="#FFFFFF" d="M-147.505-266.486h10.854v2.101c-1.838,1.401-5.777,2.627-9.104,2.627c-8.49,0-14.182-6.479-14.182-14.619
		c0-1.344,0.169-2.637,0.467-3.868l-7.507-3.698l-10.628,3.246c-0.177,1.395-0.277,2.832-0.277,4.32
		c0,18.646,14.443,30.201,32.127,30.201c11.469,0,20.223-4.64,26.699-11.818v-2.339l-28.449-14.017V-266.486L-147.505-266.486z"/>
	<polygon fill="#FFFFFF" points="-111.175,-256.451 -111.175,-247.227 -66.88,-247.227 -66.88,-252.436 -92.557,-247.278 	"/>
	<polygon fill="#FFFFFF" points="-80.024,-262.634 -93.492,-262.634 -93.492,-269.025 -67.494,-269.025 -67.494,-284.431 
		-93.492,-284.431 -93.492,-290.209 -66.88,-290.209 -66.88,-305.616 -111.175,-305.616 -111.175,-268.008 -91.935,-259.778 	"/>
	<path fill="#FFFFFF" d="M-43.593-288.984c0-1.487,0.963-2.626,4.465-2.626c5.514,0,12.08,1.926,17.158,5.777l9.453-12.518
		c-6.652-5.428-15.232-8.142-24.773-8.142c-16.02,0-24.248,9.454-24.248,19.347c0,9.932,6.062,14.515,12.953,16.972l32.759-7.856
		C-24.825-286.507-43.593-284.789-43.593-288.984z"/>
	<path fill="#FFFFFF" d="M-36.328-246.176c14.453,0,23.673-6.343,25.021-17.423l-49.883,10.021
		C-55.211-249.048-47.307-246.176-36.328-246.176z"/>
	<polygon fill="#233231" points="-201.871,-279.235 -202.625,-278.982 -201.871,-277.953 	"/>
</g>
</svg>
