<?xml version="1.0" encoding="utf-8"?>
<!-- Generator: Adobe Illustrator 19.2.0, SVG Export Plug-In . SVG Version: 6.00 Build 0)  -->
<svg version="1.1" id="Capa_1" xmlns="http://www.w3.org/2000/svg" xmlns:xlink="http://www.w3.org/1999/xlink" x="0px" y="0px"
	 viewBox="0 0 15 15" style="enable-background:new 0 0 15 15;" xml:space="preserve">
<style type="text/css">
	.st0{fill:#FFFFFF;}
</style>
<g>
	<path class="st0" d="M13.4,7.1c-0.2-2.9-2.5-5.3-5.5-5.5v0H7.5H7.1v0C4.2,1.8,1.8,4.2,1.6,7.1h0v0.4v0.4h0c0.2,2.9,2.5,5.3,5.5,5.5
		v0h0.4h0.4v0c2.9-0.2,5.3-2.5,5.5-5.5h0V7.5L13.4,7.1L13.4,7.1z M5.3,2.9C4.9,3.4,4.6,4,4.4,4.8H3.2C3.7,4,4.4,3.3,5.3,2.9z
		 M2.8,5.5h1.4C4.1,6,4,6.6,4,7.1H2.4C2.5,6.6,2.6,6,2.8,5.5z M2.4,7.9H4C4,8.4,4.1,9,4.2,9.5H2.8C2.6,9,2.5,8.4,2.4,7.9z M3.2,10.2
		h1.2c0.2,0.7,0.5,1.3,0.9,1.8C4.4,11.7,3.7,11,3.2,10.2z M7.1,12.5c-0.8-0.2-1.5-1.1-1.9-2.3h1.9V12.5z M7.1,9.5H5
		C4.9,9,4.8,8.4,4.8,7.9h2.3V9.5z M7.1,7.1H4.8C4.8,6.6,4.9,6,5,5.5h2.1V7.1z M7.1,4.8H5.2c0.4-1.2,1.1-2.1,1.9-2.3V4.8z M11.8,4.8
		h-1.2C10.4,4,10.1,3.4,9.7,2.9C10.5,3.3,11.3,4,11.8,4.8z M7.9,2.5c0.8,0.2,1.5,1.1,1.9,2.3H7.9V2.5z M7.9,5.5H10
		c0.1,0.5,0.2,1,0.2,1.6H7.9V5.5z M7.9,7.9h2.3c0,0.6-0.1,1.1-0.2,1.6H7.9V7.9z M7.9,12.5v-2.3h1.9C9.4,11.5,8.7,12.3,7.9,12.5z
		 M9.7,12.1c0.4-0.5,0.7-1.1,0.9-1.8h1.2C11.3,11,10.5,11.7,9.7,12.1z M12.2,9.5h-1.4C10.9,9,11,8.4,11,7.9h1.6
		C12.5,8.4,12.4,9,12.2,9.5z M11,7.1c0-0.5-0.1-1.1-0.2-1.6h1.4c0.2,0.5,0.3,1,0.4,1.6H11z"/>
</g>
</svg>
