<?xml version="1.0" encoding="utf-8"?>
<!-- Generator: Adobe Illustrator 16.0.0, SVG Export Plug-In . SVG Version: 6.00 Build 0)  -->
<!DOCTYPE svg PUBLIC "-//W3C//DTD SVG 1.1//EN" "http://www.w3.org/Graphics/SVG/1.1/DTD/svg11.dtd">
<svg version="1.1" id="Layer_1" xmlns="http://www.w3.org/2000/svg" xmlns:xlink="http://www.w3.org/1999/xlink" x="0px" y="0px"
	 width="23px" height="11px" viewBox="0 0 23 11" enable-background="new 0 0 23 11" xml:space="preserve">
<g>
	<g>
		<g>
			<polygon fill="none" stroke="#036564" stroke-miterlimit="10" points="17.984,5.422 13.564,5.422 13.563,5.889 6.502,9.861 
				10.922,9.863 17.984,5.889 			"/>
			<polygon fill="none" stroke="#036564" stroke-miterlimit="10" points="13.564,5.422 17.984,5.422 17.984,4.973 10.92,1 6.5,1 
				13.564,4.973 			"/>
		</g>
	</g>
	<g>
		<g>
			<polygon fill="none" stroke="#036564" stroke-miterlimit="10" points="22.385,5.422 17.961,5.422 17.961,5.889 10.9,9.863 
				15.32,9.863 22.385,5.893 			"/>
			<polygon fill="none" stroke="#036564" stroke-miterlimit="10" points="17.961,5.422 22.385,5.422 22.385,4.975 15.32,1 10.898,1 
				17.961,4.975 			"/>
		</g>
	</g>
	<g>
		<g>
			<polygon fill="none" stroke="#036564" stroke-miterlimit="10" points="13.564,5.422 9.141,5.422 9.143,5.889 2.078,9.863 
				6.502,9.863 13.563,5.889 			"/>
			<polygon fill="none" stroke="#036564" stroke-miterlimit="10" points="9.141,5.422 13.564,5.422 13.564,4.973 6.5,1 2.078,1 
				9.141,4.971 			"/>
		</g>
	</g>
</g>
</svg>
