<?xml version="1.0" encoding="utf-8"?>
<!-- Generator: Adobe Illustrator 16.0.0, SVG Export Plug-In . SVG Version: 6.00 Build 0)  -->
<!DOCTYPE svg PUBLIC "-//W3C//DTD SVG 1.1//EN" "http://www.w3.org/Graphics/SVG/1.1/DTD/svg11.dtd">
<svg version="1.1" id="Layer_1" xmlns="http://www.w3.org/2000/svg" xmlns:xlink="http://www.w3.org/1999/xlink" x="0px" y="0px"
	 width="50px" height="50px" viewBox="0 0 50 50" enable-background="new 0 0 50 50" xml:space="preserve">
<path fill-rule="evenodd" clip-rule="evenodd" fill="#A7A9AC" stroke="#A7A9AC" stroke-miterlimit="10" d="M40.5,27.115
	c0,1.317-1.067,2.385-2.385,2.385h-24.23c-1.317,0-2.385-1.067-2.385-2.385v-1.23c0-1.317,1.068-2.385,2.385-2.385h24.23
	c1.317,0,2.385,1.068,2.385,2.385V27.115z"/>
<path fill-rule="evenodd" clip-rule="evenodd" fill="#A7A9AC" stroke="#A7A9AC" stroke-miterlimit="10" d="M40.5,39.115
	c0,1.317-1.067,2.385-2.385,2.385h-24.23c-1.317,0-2.385-1.067-2.385-2.385v-1.23c0-1.317,1.068-2.385,2.385-2.385h24.23
	c1.317,0,2.385,1.067,2.385,2.385V39.115z"/>
<path fill-rule="evenodd" clip-rule="evenodd" fill="#A7A9AC" stroke="#A7A9AC" stroke-miterlimit="10" d="M40.5,15.115
	c0,1.317-1.067,2.385-2.385,2.385h-24.23c-1.317,0-2.385-1.068-2.385-2.385v-1.23c0-1.317,1.068-2.385,2.385-2.385h24.23
	c1.317,0,2.385,1.068,2.385,2.385V15.115z"/>
<path fill-rule="evenodd" clip-rule="evenodd" fill="#221E1E" stroke="#FFFFFF" stroke-linecap="round" stroke-linejoin="round" stroke-miterlimit="10" d="
	M39.5,26.115c0,1.317-1.067,2.385-2.385,2.385h-24.23c-1.317,0-2.385-1.067-2.385-2.385v-1.23c0-1.317,1.068-2.385,2.385-2.385
	h24.23c1.317,0,2.385,1.068,2.385,2.385V26.115z"/>
<path fill-rule="evenodd" clip-rule="evenodd" fill="#221E1E" stroke="#FFFFFF" stroke-linecap="round" stroke-linejoin="round" stroke-miterlimit="10" d="
	M39.5,38.115c0,1.317-1.067,2.385-2.385,2.385h-24.23c-1.317,0-2.385-1.067-2.385-2.385v-1.23c0-1.317,1.068-2.385,2.385-2.385
	h24.23c1.317,0,2.385,1.067,2.385,2.385V38.115z"/>
<path fill-rule="evenodd" clip-rule="evenodd" fill="#221E1E" stroke="#FFFFFF" stroke-linecap="round" stroke-linejoin="round" stroke-miterlimit="10" d="
	M39.5,14.115c0,1.317-1.067,2.385-2.385,2.385h-24.23c-1.317,0-2.385-1.068-2.385-2.385v-1.23c0-1.317,1.068-2.385,2.385-2.385
	h24.23c1.317,0,2.385,1.068,2.385,2.385V14.115z"/>
</svg>
