<?xml version="1.0" encoding="utf-8"?>
<!-- Generator: Adobe Illustrator 16.0.0, SVG Export Plug-In . SVG Version: 6.00 Build 0)  -->
<!DOCTYPE svg PUBLIC "-//W3C//DTD SVG 1.1//EN" "http://www.w3.org/Graphics/SVG/1.1/DTD/svg11.dtd">
<svg version="1.1" xmlns="http://www.w3.org/2000/svg" xmlns:xlink="http://www.w3.org/1999/xlink" x="0px" y="0px" width="118px"
	 height="44px" viewBox="0 0 118 44" enable-background="new 0 0 118 44" xml:space="preserve">
<pattern  x="1302.66" y="3.067" width="25" height="25" patternUnits="userSpaceOnUse" id="New_Pattern_Swatch_6" viewBox="0 -25 25 25" overflow="visible">
	<g>
		<polygon fill="none" points="0,0 25,0 25,-25 0,-25 		"/>
		<polygon fill="#F4F4F4" points="25,0 0,0 0,-25 25,-25 		"/>
		<polygon fill="#CCCCCC" points="13.5,-11.5 11.5,-11.5 11.5,-13.5 13.5,-13.5 		"/>
	</g>
</pattern>
<pattern  x="1302.66" y="3.067" width="26" height="26" patternUnits="userSpaceOnUse" id="New_Pattern_Swatch_7" viewBox="0 -26 26 26" overflow="visible">
	<g>
		<polygon fill="none" points="0,0 26,0 26,-26 0,-26 		"/>
		<polygon fill-rule="evenodd" clip-rule="evenodd" fill="#FFFFFF" points="26,0 0,0 0,-26 26,-26 		"/>
		<line opacity="0.2" fill="none" stroke="#00FF8B" stroke-miterlimit="10" x1="13.5" y1="-15" x2="13.5" y2="-12"/>
		<line opacity="0.2" fill="none" stroke="#00FF8B" stroke-miterlimit="10" x1="14" y1="-14.5" x2="11" y2="-14.5"/>
	</g>
</pattern>
<g id="Guides">
</g>
<g id="_x31_2_Col_Grid" opacity="0.1" enable-background="new    ">
</g>
<g id="Layer_3">
	<rect x="594.66" y="2223.067" fill-rule="evenodd" clip-rule="evenodd" fill="#221E1E" width="300" height="188"/>
	<polygon fill-rule="evenodd" clip-rule="evenodd" fill="#036564" points="894.66,1516.067 594.66,1516.067 594.66,987.136 
		894.66,890.999 	"/>
	<rect x="594.66" y="4.067" fill="url(#New_Pattern_Swatch_7)" width="300" height="451"/>
	<rect x="1302.66" y="3.067" fill="url(#New_Pattern_Swatch_6)" width="1021" height="610"/>
	
		<image overflow="visible" width="2550" height="3501" xlink:href="../../../Design atelier/Image (2).jpg"  transform="matrix(0.24 0 0 0.24 2437.1387 2096.5615)">
	</image>
	
		<image overflow="visible" width="2550" height="3501" xlink:href="../../../Design atelier/Image (2).jpg"  transform="matrix(0.0588 0 0 0.0588 594.7031 1685.6318)">
	</image>
	
		<image overflow="visible" width="3408" height="1920" xlink:href="../../afbeeldingen/DSC02945.JPG"  transform="matrix(0.2995 0 0 0.2995 1303.8486 2105.0664)">
	</image>
	
		<image overflow="visible" width="3408" height="1920" xlink:href="../../afbeeldingen/DSC02945.JPG"  transform="matrix(0.0881 0 0 0.0881 594.6626 1516.5107)">
	</image>
	<polygon fill="#036564" points="1303.704,2105.372 1303.896,2355.712 1616.786,2105.131 	"/>
	<g>
		<rect x="1305.66" y="2826.067" fill-rule="evenodd" clip-rule="evenodd" fill="#FFFFFF" width="1016" height="929"/>
	</g>
	<line fill="none" stroke="#CCCCCC" stroke-width="2" x1="1300.775" y1="1601.139" x2="2320.66" y2="1431.647"/>
	<line fill="none" stroke="#666666" stroke-width="2" x1="1300.775" y1="897.139" x2="2320.66" y2="727.647"/>
	<line fill="none" stroke="#4D4D4D" stroke-width="2" x1="1300.775" y1="1257.139" x2="2320.66" y2="1087.647"/>
	<rect x="1067.66" y="4.067" fill="#221E1E" width="234" height="611"/>
	<rect x="421.66" y="2.067" fill="#221E1E" width="173" height="453"/>
	<path fill-rule="evenodd" clip-rule="evenodd" fill="#221E1E" d="M1341.66,322.773c0,3.434-1.739,7.294-5.032,7.294h-34.968v-40
		h34.968c4.032,0,6.032,1.626,5.032,5.142V322.773z"/>
	<g>
		<circle fill="#221E1E" cx="1812.666" cy="216.179" r="106.893"/>
	</g>
	<circle fill="#FFFFFF" cx="1812.665" cy="216.179" r="94.038"/>
	<g>
		<g>
			<polygon fill-rule="evenodd" clip-rule="evenodd" fill="none" stroke="#221E1E" stroke-width="0.9298" points="1844.602,248.13 
				1847.729,251.255 1848.059,250.927 1855.861,253.11 1852.738,249.983 1844.934,247.8 			"/>
			<polygon fill-rule="evenodd" clip-rule="evenodd" fill="none" stroke="#221E1E" stroke-width="0.9298" points="1847.729,251.255 
				1844.602,248.13 1844.285,248.448 1846.471,256.253 1849.596,259.378 1847.41,251.573 			"/>
		</g>
		<g>
			<polygon fill-rule="evenodd" clip-rule="evenodd" fill="none" stroke="#221E1E" stroke-width="0.9298" points="1841.492,245.019 
				1844.619,248.146 1844.949,247.815 1852.752,249.999 1849.627,246.874 1841.824,244.687 			"/>
			<polygon fill-rule="evenodd" clip-rule="evenodd" fill="none" stroke="#221E1E" stroke-width="0.9298" points="1844.619,248.146 
				1841.492,245.019 1841.176,245.335 1843.359,253.14 1846.486,256.267 1844.303,248.462 			"/>
		</g>
		<g>
			<polygon fill-rule="evenodd" clip-rule="evenodd" fill="none" stroke="#221E1E" stroke-width="0.9298" points="1847.729,251.255 
				1850.855,254.384 1851.186,254.052 1858.99,256.237 1855.863,253.108 1848.059,250.927 			"/>
			<polygon fill-rule="evenodd" clip-rule="evenodd" fill="none" stroke="#221E1E" stroke-width="0.9298" points="1850.855,254.384 
				1847.729,251.255 1847.41,251.573 1849.596,259.378 1852.723,262.505 1850.537,254.702 			"/>
		</g>
		
			<polyline fill-rule="evenodd" clip-rule="evenodd" fill="none" stroke="#221E1E" stroke-width="2" stroke-linecap="round" points="
			1841.492,245.019 1776.406,179.931 1770.711,174.235 		"/>
		<g>
			<polygon fill-rule="evenodd" clip-rule="evenodd" fill="none" stroke="#221E1E" stroke-width="0.9298" points="1766.658,170.181 
				1769.785,173.31 1770.115,172.978 1777.918,175.161 1774.793,172.036 1766.988,169.853 			"/>
			<polygon fill-rule="evenodd" clip-rule="evenodd" fill="none" stroke="#221E1E" stroke-width="0.9298" points="1769.785,173.31 
				1766.658,170.181 1766.342,170.497 1768.525,178.306 1771.65,181.433 1769.469,173.626 			"/>
		</g>
	</g>
	<g>
		<g>
			<polygon fill-rule="evenodd" clip-rule="evenodd" fill="none" stroke="#221E1E" stroke-width="0.9298" points="1780.715,248.116 
				1777.59,251.241 1777.918,251.571 1775.732,259.376 1778.861,256.251 1781.045,248.446 			"/>
			<polygon fill-rule="evenodd" clip-rule="evenodd" fill="none" stroke="#221E1E" stroke-width="0.9298" points="1777.59,251.241 
				1780.715,248.116 1780.396,247.798 1772.592,249.983 1769.465,253.108 1777.271,250.923 			"/>
		</g>
		<g>
			<polygon fill-rule="evenodd" clip-rule="evenodd" fill="none" stroke="#221E1E" stroke-width="0.9298" points="1783.824,245.005 
				1780.699,248.132 1781.029,248.462 1778.846,256.265 1781.971,253.14 1784.156,245.337 			"/>
			<polygon fill-rule="evenodd" clip-rule="evenodd" fill="none" stroke="#221E1E" stroke-width="0.9298" points="1780.699,248.132 
				1783.824,245.005 1783.508,244.688 1775.703,246.872 1772.576,249.999 1780.383,247.815 			"/>
		</g>
		<g>
			<polygon fill-rule="evenodd" clip-rule="evenodd" fill="none" stroke="#221E1E" stroke-width="0.9298" points="1777.59,251.241 
				1774.461,254.368 1774.793,254.698 1772.607,262.503 1775.734,259.376 1777.918,251.571 			"/>
			<polygon fill-rule="evenodd" clip-rule="evenodd" fill="none" stroke="#221E1E" stroke-width="0.9298" points="1774.461,254.368 
				1777.59,251.241 1777.271,250.923 1769.465,253.108 1766.338,256.235 1774.143,254.05 			"/>
		</g>
		
			<polyline fill-rule="evenodd" clip-rule="evenodd" fill="none" stroke="#221E1E" stroke-width="2" stroke-linecap="round" points="
			1783.824,245.005 1848.912,179.919 1854.609,174.224 		"/>
		<g>
			<polygon fill-rule="evenodd" clip-rule="evenodd" fill="none" stroke="#221E1E" stroke-width="0.9298" points="1858.664,170.171 
				1855.535,173.298 1855.865,173.628 1853.682,181.431 1856.809,178.306 1858.992,170.501 			"/>
			<polygon fill-rule="evenodd" clip-rule="evenodd" fill="none" stroke="#221E1E" stroke-width="0.9298" points="1855.535,173.298 
				1858.664,170.171 1858.346,169.854 1850.539,172.038 1847.412,175.163 1855.217,172.981 			"/>
		</g>
	</g>
	<g>
		<polygon fill-rule="evenodd" clip-rule="evenodd" fill="none" stroke="#00FF8B" stroke-miterlimit="10" points="1137.496,112.734 
			1133.077,112.734 1133.076,113.199 1126.012,117.173 1130.434,117.175 1137.496,113.201 		"/>
		<polygon fill-rule="evenodd" clip-rule="evenodd" fill="none" stroke="#00FF8B" stroke-miterlimit="10" points="1133.077,112.734 
			1137.496,112.734 1137.496,112.284 1130.433,108.311 1126.012,108.309 1133.077,112.284 		"/>
	</g>
	<g>
		<polygon fill-rule="evenodd" clip-rule="evenodd" fill="none" stroke="#00FF8B" stroke-miterlimit="10" points="1141.896,112.732 
			1137.475,112.734 1137.475,113.201 1130.413,117.174 1134.832,117.174 1141.896,113.202 		"/>
		<polygon fill-rule="evenodd" clip-rule="evenodd" fill="none" stroke="#00FF8B" stroke-miterlimit="10" points="1137.475,112.734 
			1141.896,112.732 1141.896,112.285 1134.832,108.311 1130.41,108.311 1137.475,112.287 		"/>
	</g>
	<g>
		<polygon fill-rule="evenodd" clip-rule="evenodd" fill="none" stroke="#00FF8B" stroke-miterlimit="10" points="1133.077,112.734 
			1128.653,112.732 1128.655,113.201 1121.591,117.174 1126.013,117.174 1133.076,113.199 		"/>
		<polygon fill-rule="evenodd" clip-rule="evenodd" fill="none" stroke="#00FF8B" stroke-miterlimit="10" points="1128.653,112.732 
			1133.077,112.734 1133.077,112.284 1126.012,108.309 1121.59,108.309 1128.653,112.282 		"/>
	</g>
	
		<polyline fill-rule="evenodd" clip-rule="evenodd" fill="none" stroke="#00FF8B" stroke-width="2" stroke-linecap="round" stroke-miterlimit="10" points="
		1141.896,112.732 1233.942,112.734 1241.998,112.735 	"/>
	<g>
		<polygon fill-rule="evenodd" clip-rule="evenodd" fill="none" stroke="#00FF8B" stroke-miterlimit="10" points="1247.73,112.737 
			1243.307,112.735 1243.307,113.202 1236.246,117.175 1240.666,117.177 1247.729,113.202 		"/>
		<polygon fill-rule="evenodd" clip-rule="evenodd" fill="none" stroke="#00FF8B" stroke-miterlimit="10" points="1243.307,112.735 
			1247.73,112.737 1247.729,112.288 1240.665,108.312 1236.244,108.311 1243.306,112.287 		"/>
	</g>
	<polyline fill-rule="evenodd" clip-rule="evenodd" fill="#221E1E" points="1811.131,568.067 1797.873,558.313 1797.869,567.967 
		1811.131,582.483 1812.682,582.466 1814.182,582.446 1827.447,567.872 1827.451,558.216 1814.16,568.109 	"/>
	<g>
		<path fill="#221E1E" d="M1779.639,228.101h-8.297l-6.289-9.861h-0.068v9.861h-6.664v-25.637h9.961
			c2.676,0,4.828,0.658,6.461,1.973s2.447,3.287,2.447,5.916c0,1.836-0.492,3.422-1.479,4.76s-2.363,2.164-4.131,2.482
			L1779.639,228.101z M1764.984,213.956h0.646c0.611,0,1.184-0.039,1.717-0.119c0.531-0.078,1.02-0.232,1.461-0.459
			c0.443-0.227,0.793-0.555,1.055-0.986c0.26-0.43,0.391-0.975,0.391-1.631c0-0.658-0.131-1.201-0.391-1.633
			c-0.262-0.43-0.611-0.76-1.055-0.986c-0.441-0.227-0.93-0.379-1.461-0.459c-0.533-0.078-1.105-0.119-1.717-0.119h-0.646V213.956z"
			/>
	</g>
	<g>
		<path fill="#221E1E" d="M1845.914,202.771h6.563l5.201,13.703l5.508-13.703h6.631l3.877,25.637h-6.664l-1.871-14.756h-0.068
			l-6.154,14.756h-2.65l-5.883-14.756h-0.068l-2.141,14.756h-6.631L1845.914,202.771z"/>
	</g>
	<g>
		<g>
			<path fill="#FFFFFF" d="M1808.031,189.935c-0.014-0.024-0.395-0.68-1.83-2.45c-0.723-0.548-0.752-0.559-2.082-1.085
				c-0.363-0.145-2.872-1.154-2.872-1.154l0.943-0.219c-1.268-0.58-2.348-1.396-3.239-2.145l-2.838-2.386l2.039,0.938
				c-0.469-0.429-0.829-0.897-1.004-1.401l-0.283-0.821c-0.982-0.892-1.812-2.026-2.334-3.513l-0.855-2.43l1.26,1.431
				c-0.471-0.778-0.815-1.626-1.035-2.571l-0.42-1.807l1.271,1.351c0.494,0.525,0.923,1.002,1.318,1.44
				c0.477,0.531,0.901,1.002,1.331,1.437c-2.447-2.585-3.619-5.036-3.694-7.596l-0.068-2.316l1.018,2.083
				c0.513,1.049,1.154,2.076,1.873,3.057c-1.248-2.064-2.006-4.134-1.428-5.661l0.503-1.33l0.44,1.353
				c1.188,3.652,4.283,6.775,7.014,9.531c3.163,3.191,5.895,5.948,5.504,8.997c-0.674,3.335,0.373,6.844,0.385,6.879l1.375,4.526
				L1808.031,189.935z"/>
			<path fill="#221E1E" d="M1795.568,164.292c2.547,7.824,13.191,12.9,12.498,18.311c-0.701,3.461,0.402,7.088,0.402,7.088
				s-0.363-0.654-1.918-2.568c-1.031-0.781-0.734-0.57-3.648-1.748c0.056-0.014,0.118-0.019,0.187-0.019
				c0.354,0,0.859,0.146,1.386,0.146c0.303,0,0.613-0.049,0.906-0.202c-2.496-0.082-4.504-1.453-6.107-2.801
				c1.67,0.768,2.926,1.205,4.672,1.291c-2.924-0.908-5.795-2.395-6.324-3.922c1.189,0.844,3.43,2.074,4.997,2.074
				c0.195,0,0.38-0.02,0.552-0.061c-2.816-0.967-6.742-2.301-8.168-6.35c2.977,3.381,5.311,3.68,8.34,4.996
				c-5.301-2.738-8.107-4.871-8.955-8.514c2.926,3.107,3.535,4.484,8.479,6.518c-5.037-3.629-8.533-7.344-8.658-11.594
				c2.238,4.582,6.521,8.25,8.705,9.824C1798.121,172.017,1794.602,166.851,1795.568,164.292 M1795.64,161.278l-1.007,2.66
				c-0.135,0.357-0.207,0.738-0.223,1.139l-1.34-2.742l0.137,4.633c0.029,0.989,0.212,1.961,0.559,2.928l-1.191-1.267l0.83,3.575
				l-1.055-1.199l1.709,4.859c0.533,1.512,1.375,2.684,2.368,3.609l0.25,0.722c0.001,0.004,0.003,0.008,0.004,0.012l-3.729-1.714
				l5.677,4.771c0.626,0.525,1.342,1.083,2.15,1.575l-1.188,0.274l2.936,1.188c0.586,0.236,1.044,0.418,1.408,0.563
				c1.259,0.498,1.295,0.513,1.916,0.982c1.377,1.701,1.742,2.329,1.746,2.336l4.377,7.612l-2.55-8.396
				c-0.01-0.033-1.019-3.438-0.378-6.598l0.008-0.036l0.004-0.036c0.422-3.291-2.525-6.264-5.645-9.412
				c-2.691-2.717-5.742-5.796-6.895-9.335L1795.64,161.278L1795.64,161.278z"/>
		</g>
		<g>
			<path fill="#FFFFFF" d="M1816.383,189.545c0.011-0.034,1.058-3.552,0.391-6.843c-0.396-3.086,2.335-5.842,5.498-9.033
				c2.73-2.756,5.826-5.88,7.015-9.531l0.44-1.354l0.503,1.331c0.577,1.526-0.179,3.595-1.426,5.657
				c0.718-0.979,1.357-2.004,1.87-3.053l1.018-2.083l-0.068,2.316c-0.075,2.558-1.246,5.008-3.69,7.592
				c0.428-0.433,0.851-0.901,1.326-1.431c0.396-0.439,0.825-0.916,1.32-1.442l1.271-1.351l-0.42,1.807
				c-0.221,0.946-0.565,1.794-1.037,2.573l1.262-1.434l-0.855,2.431c-0.523,1.486-1.353,2.621-2.334,3.512l-0.284,0.822
				c-0.175,0.504-0.535,0.973-1.004,1.4l2.039-0.937l-2.839,2.386c-0.891,0.749-1.971,1.564-3.238,2.145l0.942,0.219
				c0,0-2.508,1.01-2.871,1.153c-1.359,0.538-1.359,0.538-2.089,1.091c-1.441,1.779-1.821,2.439-1.824,2.445l-2.221,3.92
				L1816.383,189.545z"/>
			<path fill="#221E1E" d="M1829.762,164.292c0.967,2.559-2.553,7.725-7.344,12.471c2.184-1.574,6.467-5.242,8.705-9.824
				c-0.125,4.25-3.621,7.965-8.658,11.594c4.943-2.033,5.553-3.41,8.479-6.518c-0.848,3.643-3.654,5.775-8.955,8.514
				c3.029-1.316,5.363-1.615,8.34-4.996c-1.426,4.049-5.352,5.383-8.168,6.35c0.171,0.041,0.355,0.061,0.551,0.061
				c1.567,0,3.809-1.23,4.998-2.074c-0.529,1.527-3.4,3.014-6.324,3.922c1.746-0.086,3.002-0.523,4.672-1.291
				c-1.604,1.348-3.611,2.719-6.107,2.801c0.292,0.153,0.603,0.202,0.906,0.202c0.526,0,1.031-0.146,1.386-0.146
				c0.068,0,0.131,0.005,0.187,0.019c-2.914,1.178-2.617,0.967-3.648,1.748c-1.555,1.914-1.918,2.568-1.918,2.568
				s1.104-3.627,0.402-7.088C1816.57,177.192,1827.215,172.116,1829.762,164.292 M1831.123,166.938h0.005 M1830.943,172.015h0.005
				 M1830.328,175.532h0.005 M1827.709,179.868h0.005 M1826.057,182.499h0.005 M1829.691,161.276l-0.881,2.706
				c-1.151,3.539-4.203,6.618-6.895,9.334c-3.119,3.148-6.066,6.122-5.645,9.413l0.005,0.036l0.007,0.036
				c0.644,3.176-0.368,6.564-0.379,6.598l-2.742,9.014l4.573-8.237l0,0c0,0,0.367-0.628,1.744-2.329
				c0.62-0.471,0.656-0.484,1.916-0.983c0.364-0.144,0.82-0.325,1.407-0.562l2.935-1.188l-1.187-0.274
				c0.808-0.492,1.523-1.05,2.149-1.575l5.677-4.771l-3.727,1.713c0.001-0.004,0.002-0.007,0.004-0.01l0.251-0.726
				c0.992-0.926,1.834-2.096,2.366-3.606l1.712-4.861l-1.058,1.201l0.832-3.576l-1.194,1.27c0.347-0.967,0.53-1.939,0.56-2.93
				l0.136-4.633l-1.339,2.74c-0.017-0.398-0.088-0.779-0.223-1.137L1829.691,161.276L1829.691,161.276z"/>
		</g>
	</g>
	<g>
		<path fill="#FFFFFF" d="M69.405,37.782c-3.147,1.069-6.551,1.444-10.611,1.577l-9.553,0.311l2.989-1.099c-0.041,0-0.081,0-0.122,0
			c-1.76,0-3.261-0.295-4.461-0.878L45.191,36.5c-0.445,0.021-0.892,0.032-1.342,0.032c-3.965,0-7.787-0.868-11.359-2.58
			l-7.165-3.433l5.86,0.373c-2.763-0.68-5.342-1.785-7.854-3.35l-4.854-3.021l5.715,0.172c2.233,0.067,4.248,0.173,6.026,0.266
			c2.339,0.123,4.359,0.229,6.332,0.229c0.037,0,0.074,0,0.11,0c-11.045-0.261-19.246-3.051-25.032-8.507l-5.198-4.901l6.757,2.322
			c3.417,1.174,7.134,2.061,11.124,2.657c-7.364-1.768-13.728-4.643-15.833-9.304L6.673,3.456l3.909,1.989
			c10.554,5.371,24.114,5.433,36.077,5.487c13.855,0.063,25.821,0.118,31.617,7.618l0.065,0.091
			c5.713,8.616,16.127,14.001,16.231,14.055l11.292,5.768L93.52,35.57c-0.024-0.006-2.705-0.616-9.889-1.366
			c-2.766,0.381-2.78,0.387-6.906,2.171c-1.106,0.479-2.494,1.079-4.284,1.838l-4.499,1.909L69.405,37.782z"/>
		<path fill="#221E1E" d="M9.883,6.819c22.612,11.507,56.89-0.634,67.174,12.674c6.017,9.074,16.815,14.576,16.815,14.576
			s-2.703-0.634-10.267-1.418c-3.952,0.545-2.844,0.357-11.766,4.144c0.861-1.379,4.071-2.894,5.242-5.565
			c-5.621,5.263-10.671,6.338-18.338,6.588c7.25-2.667,7.922-3.13,11.917-6.75c-6.445,3.391-13.571,5.962-18.551,5.962
			c-1.476,0-2.764-0.226-3.789-0.724c4.986-0.848,13.938-3.53,16.489-7.708c-5.738,2.805-13.033,6.393-20.96,6.393
			c-3.469,0-7.06-0.688-10.693-2.428c1.208,0.077,2.353,0.113,3.445,0.113c11.442,0,16.981-3.996,25.631-7.404
			c-9.664,3.08-17.271,4.909-23.795,4.909c-5.309,0-9.9-1.212-14.292-3.946c5.07,0.152,8.828,0.495,12.405,0.495
			c5.703,0,10.943-0.871,20.292-4.77c-6.575,1.068-12.764,1.707-18.444,1.707c-10.643,0-19.493-2.244-25.712-8.107
			c8.1,2.783,16.93,3.652,24.617,3.652c6.426,0,12.053-0.608,15.784-1.213C52.808,18,52.531,18,52.254,18
			C31.788,18,13.307,14.403,9.883,6.819 M3.463,0.093l3.609,7.995c0.485,1.075,1.163,2.063,2,2.97L0.173,8l10.397,9.802
			c2.224,2.097,4.776,3.817,7.68,5.171l-5.443-0.164l9.61,5.981l-4.923-0.313l14.33,6.866c3.782,1.812,7.828,2.73,12.025,2.73
			c0.34,0,0.679-0.006,1.016-0.018l1.853,0.899l-6.979,2.567l19.105-0.623c2.632-0.086,5.003-0.271,7.213-0.667l-2.011,3.22
			l8.998-3.818c1.794-0.762,3.185-1.363,4.293-1.843c3.835-1.659,3.944-1.706,6.319-2.034c6.896,0.726,9.494,1.31,9.52,1.316
			l24.288,5.558L95.271,31.322c-0.098-0.05-10.167-5.271-15.645-13.533l-0.062-0.093l-0.068-0.088
			c-6.256-8.096-19.164-8.155-32.83-8.217C34.874,9.337,21.509,9.276,11.281,4.071L3.463,0.093L3.463,0.093z"/>
	</g>
	<g>
		<path fill="#221E1E" d="M1748.285,270.519l2.432-3.639l-0.072-0.352l-0.742-0.943l-0.225-0.025l-2.266,1.779l-0.809,1.041
			l-1.877-2.391l1.203-0.539l6.795-5.336l0.811-1.043l4.051,5.158l-0.322,2.697l-2.141,1.68l-2.471-0.297l-1.838,2.971l-0.652,1.629
			L1748.285,270.519z M1754.863,265.556l0.307-0.646l-0.182-0.877l-1.186-1.51l-0.225-0.027l-2.139,1.68l-0.027,0.225l1.186,1.512
			l0.811,0.381l0.699-0.145L1754.863,265.556z"/>
		<path fill="#221E1E" d="M1756.033,278.808l-2.746-2.686l-0.025-2.488l3.58-3.66l2.488-0.027l2.744,2.686l0.029,2.488l-3.582,3.66
			L1756.033,278.808z M1759.887,274.296l0.219-0.682l-0.234-0.676l-0.799-0.783l-0.682-0.219l-0.676,0.232l-2.238,2.289
			l-0.219,0.682l0.234,0.676l0.799,0.783l0.682,0.219l0.676-0.234L1759.887,274.296z"/>
		<path fill="#221E1E" d="M1763.725,285.212l-2.748-2.15l-0.299-2.471l3.154-4.031l2.471-0.301l2.746,2.15l-0.787,2.227
			l-0.838-1.266l-1.135-0.889l-0.701-0.141l-0.646,0.307l-1.824,2.33l-0.178,0.877l0.383,0.809l0.945,0.738l1.43,0.51
			L1763.725,285.212z"/>
		<path fill="#221E1E" d="M1770.348,289.573l0.496-1.104l0.766-3.199l-0.203-0.127l-1.213,0.283l-0.305,0.188l-0.973,1.563
			l-0.404,1.256l-2.309-1.438l0.947-0.918l4.732-7.607l0.406-1.256l2.037,1.268l-3.086,4.959l-0.193,0.16l3.086-0.717l0.777-0.646
			l2.242,1.393l0.051,0.221l-3.414,0.797l-1,4.938l0.004,1.51L1770.348,289.573z"/>
		<path fill="#221E1E" d="M1787.432,297.358l0.742-1.092l1.596-4.357l-0.078-0.711l-0.492-0.52l-0.525-0.193l-0.711,0.08
			l-0.65,0.613l-1.543,4.207l-0.139,1.311l-2.555-0.936l0.74-1.092l1.598-4.355l-0.08-0.711l-0.49-0.521l-0.527-0.193l-0.711,0.08
			l-0.65,0.615l-1.543,4.205l-0.139,1.313l-2.555-0.938l0.742-1.09l1.9-5.184l-0.143-1.244l2.529,0.074l-0.125,0.807l1.6-0.18
			l1.504,0.551l0.775,1.135l1.777-0.199l1.879,0.688l0.951,2.055l-1.982,5.408l-0.141,1.311L1787.432,297.358z"/>
		<path fill="#221E1E" d="M1800.523,292.962l-4.697,8.008l-1.705,1.115l-1.645-0.344l2.332-2.945l-0.863-7.209l-0.365-1.383
			l2.82,0.588l-0.42,1.221l0.469,4.021l-0.02,0.484l0.176-0.453l2.039-3.496l0.105-1.285l2.662,0.557L1800.523,292.962z"/>
		<path fill="#221E1E" d="M1816.732,293.966l-2.635,7.307l-1.52-0.033l-1.498-4.832l-0.07-0.482l-0.09,0.479l-1.701,4.766
			l-1.52-0.031l-2.324-7.412l-0.613-1.293l2.879,0.063l-0.188,1.275l1.125,3.625l0.07,0.48l0.09-0.479l1.275-3.574l-0.133-1.281
			l2.559,0.053l-0.186,1.277l1.123,3.623l0.07,0.482l0.09-0.479l1.275-3.574l-0.133-1.283l2.719,0.059L1816.732,293.966z"/>
		<path fill="#221E1E" d="M1820.877,296.968l0.104,0.873l0.492,0.746l0.842,0.305l2.033-0.244l1.326-0.641l-0.482,2.313
			l-4.258,0.508l-1.957-1.539l-0.605-5.084l1.539-1.955l3.496-0.418l1.955,1.541l0.361,3.018L1820.877,296.968z M1823.313,294.421
			l-0.395-0.598l-0.674-0.242l-0.793,0.096l-0.6,0.393l-0.24,0.674l0.094,0.795l2.701-0.322L1823.313,294.421z"/>
		<path fill="#221E1E" d="M1834.631,298.288l-2.252,0.561l-1.223-0.273l-0.408,0.68l-1.475,0.367l-2.475-9.938l-0.621-1.164
			l2.252-0.561l0.852,3.416l1.086-0.932l2.174-0.541l2.133,1.283l1.238,4.967L1834.631,298.288z M1832.811,292.64l-0.465-0.543
			l-0.699-0.156l-1.01,0.25l-0.543,0.467l-0.193,0.873l0.695,2.793l0.582,0.682l0.699,0.154l1.008-0.25l0.543-0.467l0.156-0.697
			L1832.811,292.64z"/>
		<path fill="#221E1E" d="M1844.514,294.862l-0.459-0.508l-0.955,1.066l-2.084,0.82l-2.283-0.992l-1.879-4.762l0.992-2.283
			l2.158-0.852l1.248,0.109l-0.793-2.008l-0.768-1.074l2.232-0.879l3.758,9.525l0.766,1.072L1844.514,294.862z M1842.104,289.622
			l-0.666-0.598l-0.713-0.064l-0.969,0.383l-0.477,0.531l-0.064,0.713l1.176,2.979l0.531,0.477l0.713,0.064l0.967-0.383l0.479-0.533
			l0.078-0.889L1842.104,289.622z"/>
		<path fill="#221E1E" d="M1849.307,288.354l0.42,0.771l0.734,0.512l0.895-0.033l1.797-0.982l0.992-1.088l0.414,2.326l-3.764,2.055
			l-2.389-0.701l-2.453-4.494l0.701-2.387l3.09-1.688l2.387,0.701l1.457,2.668L1849.307,288.354z M1850.619,285.085l-0.588-0.41
			l-0.715,0.027l-0.703,0.383l-0.408,0.588l0.027,0.715l0.383,0.703l2.387-1.305L1850.619,285.085z"/>
		<path fill="#221E1E" d="M1860.99,285.624l-3.152,2.193l-1.824-1.361l1.416-0.4l1.68-1.17l0.258-0.473l-0.076-0.529l-0.229-0.33
			l-0.67-0.119l-1.869,0.814l-2.004-0.359l-1.006-1.445l0.439-2.449l2.822-1.965l1.826,1.361l-1.457,0.428l-1.313,0.914
			l-0.256,0.473l0.076,0.531l0.229,0.328l0.668,0.119l1.869-0.814l2.006,0.359l1.004,1.445L1860.99,285.624z"/>
		<path fill="#221E1E" d="M1859.721,274.653l-0.863,0.711l-0.902-0.088l-0.609-0.74l0.088-0.9l0.863-0.713l0.9,0.088l0.611,0.74
			L1859.721,274.653z M1864.238,283.161l-0.566-1.191l-3.508-4.262l-1.145-0.51l1.479-2.357l4.781,5.807l1.059,0.785
			L1864.238,283.161z"/>
		<path fill="#221E1E" d="M1868.496,269.243l5.877,5.891l-0.006,2.715l-2.129,2.125l-0.904,0.451l-1.664-0.828l1.359-0.678
			l1.359-1.355l0.227-0.678l-0.225-0.68l-0.961-0.963l-0.396,1.188l-1.529,1.525l-2.49-0.004l-3.162-3.172l0.004-2.715l1.529-1.525
			l1.357-0.449l-0.283-0.623l1.361-1.357L1868.496,269.243z M1868.098,271.788l-0.848-0.283l-0.68,0.225l-0.68,0.678l-0.229,0.68
			l0.227,0.678l2.033,2.039l0.678,0.229l0.682-0.227l0.678-0.678l0.229-0.678l-0.281-0.85L1868.098,271.788z"/>
		<path fill="#221E1E" d="M1878.934,268.112l-0.813-1.039l-3.658-2.855l-0.701-0.141l-0.646,0.307l-0.443,0.568l-0.141,0.701
			l0.385,0.807l3.531,2.758l1.205,0.535l-1.674,2.145l-0.813-1.041l-4.352-3.396l-1.227-0.248l0.848-2.383l0.729,0.365l0.318-1.578
			l1.131-1.451l2.246-0.275l4.541,3.543l1.205,0.537L1878.934,268.112z"/>
	</g>
	<g>
		<path fill="#221E1E" d="M1781.572,145.47c0.781-2.18,2.564-8.299,2.871-9.426l1.404,0.186c-0.201,2.352,0.768,4.586,0.838,6.254
			c0.453-0.652,0.914-1.512,1.227-2.4l0.059-0.158c0.248-0.025,0.607,0.111,0.789,0.316c-0.65,1.805-1.742,3.656-3.25,4.469
			c-0.014,0.006-0.023,0.025-0.039,0.031c-0.143,0.072-0.271,0.139-0.422,0.195c-1.42,0.539-2.182-0.607-2.182-0.607l0.779-0.879
			c0,0,0.426,0.488,0.949,0.291c1.48-0.563,0.049-3.34,0.047-5.188c-0.275,0.943-1.785,5.881-2.281,7.232
			C1782.08,145.724,1781.781,145.614,1781.572,145.47z"/>
		<path fill="#221E1E" d="M1791.973,138.747c0.242,0.027,0.592,0.188,0.766,0.369c-0.854,1.932-1.941,3.799-3.258,4.199
			c-1.285,0.391-2.09-0.553-1.775-1.936l1.52-6.514l1.592-0.482l-1.607,6.99c-0.176,0.74,0.098,0.924,0.449,0.818
			c0.703-0.215,1.5-1.611,2.244-3.291L1791.973,138.747z M1790.207,131.661c0.52-0.158,1.059,0.129,1.217,0.65
			c0.158,0.52-0.135,1.043-0.654,1.201c-0.521,0.158-1.039-0.119-1.199-0.639C1789.412,132.353,1789.686,131.819,1790.207,131.661z"
			/>
		<path fill="#221E1E" d="M1799.666,136.968c0.24,0.045,0.576,0.234,0.734,0.428c-1,1.859-2.229,3.639-3.572,3.938
			c-1.313,0.289-2.041-0.713-1.621-2.068l1.299-4.139c0.438-1.357-0.762-1.52-2.559,2.141l-1.529,4.877l-1.641,0.363l2.789-8.813
			l1.625-0.359l-0.375,1.197c0.627-1.023,1.277-1.561,1.98-1.715c0.906-0.201,1.775,0.541,1.346,1.93l-1.436,4.629
			c-0.232,0.723,0.025,0.93,0.385,0.85c0.719-0.16,1.621-1.49,2.492-3.109L1799.666,136.968z"/>
		<path fill="#221E1E" d="M1801.119,137.468c-0.592,1.43,0.092,1.988,1.107,1.861c1.158-0.148,2.543-1.436,3.559-2.965l0.096-0.143
			c0.234,0.068,0.551,0.285,0.691,0.494c-1.164,1.758-2.838,3.453-4.709,3.689c-1.953,0.248-3.045-1.258-2.236-3.15l1.354-3.188
			c0.547-1.293,1.521-2.127,2.855-2.295c1.348-0.17,2.35,0.863,1.652,2.5l-0.186,0.441l-1.348,0.172l0.186-0.443
			c0.768-1.838-0.949-1.895-1.695-0.141L1801.119,137.468z"/>
		<path fill="#221E1E" d="M1807.42,136.501l-0.146,0.293c-0.705,1.379-0.066,1.988,0.955,1.941c1.166-0.053,2.648-1.227,3.783-2.672
			l0.105-0.133c0.229,0.086,0.527,0.328,0.65,0.547c-1.301,1.66-3.102,3.217-4.988,3.305c-1.965,0.09-2.934-1.498-1.979-3.318
			l1.604-3.068c0.646-1.248,1.686-2,3.027-2.063c1.357-0.063,2.273,1.049,1.449,2.623l-0.219,0.428
			C1810.516,136.597,1808.512,136.897,1807.42,136.501z M1807.861,135.663c0.633,0.195,1.705,0.178,2.441-1.217l0.221-0.428
			c0.91-1.771-0.795-1.963-1.678-0.275L1807.861,135.663z"/>
		<path fill="#221E1E" d="M1822.479,134.714c1.172-1.586-0.377-2.496-1.662-0.744l-0.533,0.686l-1.688-0.17l0.729-1.02
			c2.193-3.123,6.559-1.127,4.402,1.953c-1.408,2.012-3.346,2.91-4.762,3.234l2.912,0.293l-0.727,1.004l-5.826-0.584l0.729-1.004
			C1818.527,138.048,1820.523,137.38,1822.479,134.714z"/>
		<path fill="#221E1E" d="M1825.609,135.876l1.076-1.24c1.262-1.449,2.332-1.76,3.59-1.516c1.537,0.303,2.131,2.098,0.807,3.615
			l-2.209,2.535c-2.754,3.16-7.143,1.014-4.205-2.324L1825.609,135.876z M1825.613,138.11c-1.307,1.504,0.514,2.121,1.541,0.953
			l2.791-3.186c1.322-1.502-0.098-2.58-1.625-0.857l-1.047,1.182L1825.613,138.11z"/>
		<path fill="#221E1E" d="M1833.613,135.487c1.217-0.072,2.305-0.098,3.551-0.627l0.221,1.574l-4.723,4.602l1.416,0.398
			l-0.918,0.904l-4.172-1.176l0.92-0.904l1.324,0.373l4.328-4.213c-0.586,0.133-1.227,0.17-1.891,0.164L1833.613,135.487z"/>
		<path fill="#221E1E" d="M1839.533,140.394c1.168,0.438,1.896,0.316,2.684-0.328c0.986-0.809,1.158-1.633,0.514-1.875
			c-0.389-0.145-1.037-0.012-1.771,0.584l-0.518,0.422l-1.588-0.594l0.68-0.582c1.482-1.223,2.59-1.355,3.789-0.906
			c1.691,0.635,1.488,2.643,0.205,3.697c-1.139,0.941-2.031,1.137-3.072,0.951c0.232,0.84,0.01,1.934-1.051,2.803
			c-1.652,1.361-3.223,1.219-4.256,0.83c-1.934-0.723-1.463-3.023,0.063-3.955l1.469,0.549c0,0-0.908,0.516-1.246,1.412
			c-0.354,0.945,0.941,1.822,2.736,0.359c1.283-1.057,1.271-2.256,0.402-2.582L1839.533,140.394z"/>
	</g>
	<polygon fill="#221E1E" stroke="#FFFFFF" stroke-miterlimit="10" points="1812.66,257.917 1806.088,261.374 1807.346,254.054 
		1802.027,248.868 1809.377,247.798 1812.66,241.138 1815.955,247.798 1823.305,248.868 1817.98,254.054 1819.238,261.374 	"/>
	<g>
		<g>
			<circle fill="#221E1E" cx="744.66" cy="144.875" r="91.56"/>
		</g>
		<circle fill="#FFFFFF" cx="744.66" cy="144.875" r="80.548"/>
		<g>
			<polygon fill-rule="evenodd" clip-rule="evenodd" fill="none" stroke="#221E1E" stroke-width="0.9298" points="772.015,172.242 
				774.693,174.919 774.976,174.638 781.659,176.508 778.984,173.83 772.299,171.959 			"/>
			<polygon fill-rule="evenodd" clip-rule="evenodd" fill="none" stroke="#221E1E" stroke-width="0.9298" points="774.693,174.919 
				772.015,172.242 771.744,172.515 773.616,179.2 776.293,181.877 774.421,175.192 			"/>
		</g>
		<g>
			<polygon fill-rule="evenodd" clip-rule="evenodd" fill="none" stroke="#221E1E" stroke-width="0.9298" points="769.352,169.577 
				772.03,172.256 772.313,171.973 778.996,173.843 776.319,171.167 769.636,169.293 			"/>
			<polygon fill-rule="evenodd" clip-rule="evenodd" fill="none" stroke="#221E1E" stroke-width="0.9298" points="772.03,172.256 
				769.352,169.577 769.08,169.848 770.951,176.534 773.629,179.212 771.759,172.527 			"/>
		</g>
		<g>
			<polygon fill-rule="evenodd" clip-rule="evenodd" fill="none" stroke="#221E1E" stroke-width="0.9298" points="774.693,174.919 
				777.372,177.599 777.654,177.315 784.34,179.187 781.661,176.507 774.976,174.638 			"/>
			<polygon fill-rule="evenodd" clip-rule="evenodd" fill="none" stroke="#221E1E" stroke-width="0.9298" points="777.372,177.599 
				774.693,174.919 774.421,175.192 776.293,181.877 778.971,184.555 777.099,177.872 			"/>
		</g>
		
			<polyline fill-rule="evenodd" clip-rule="evenodd" fill="none" stroke="#221E1E" stroke-width="2" stroke-linecap="round" points="
			769.352,169.577 713.602,113.826 708.724,108.948 		"/>
		<g>
			<polygon fill-rule="evenodd" clip-rule="evenodd" fill="none" stroke="#221E1E" stroke-width="0.9298" points="705.252,105.475 
				707.931,108.155 708.214,107.871 714.896,109.741 712.22,107.064 705.535,105.194 			"/>
			<polygon fill-rule="evenodd" clip-rule="evenodd" fill="none" stroke="#221E1E" stroke-width="0.9298" points="707.931,108.155 
				705.252,105.475 704.981,105.746 706.852,112.434 709.528,115.113 707.66,108.426 			"/>
		</g>
		<g>
			<polygon fill-rule="evenodd" clip-rule="evenodd" fill="none" stroke="#221E1E" stroke-width="0.9298" points="717.293,172.23 
				714.616,174.907 714.896,175.19 713.024,181.875 715.705,179.198 717.575,172.513 			"/>
			<polygon fill-rule="evenodd" clip-rule="evenodd" fill="none" stroke="#221E1E" stroke-width="0.9298" points="714.616,174.907 
				717.293,172.23 717.02,171.958 710.335,173.83 707.656,176.507 714.343,174.635 			"/>
		</g>
		<g>
			<polygon fill-rule="evenodd" clip-rule="evenodd" fill="none" stroke="#221E1E" stroke-width="0.9298" points="719.956,169.565 
				717.279,172.244 717.562,172.527 715.691,179.21 718.368,176.534 720.24,169.85 			"/>
			<polygon fill-rule="evenodd" clip-rule="evenodd" fill="none" stroke="#221E1E" stroke-width="0.9298" points="717.279,172.244 
				719.956,169.565 719.685,169.294 713,171.165 710.321,173.843 717.008,171.973 			"/>
		</g>
		<g>
			<polygon fill-rule="evenodd" clip-rule="evenodd" fill="none" stroke="#221E1E" stroke-width="0.9298" points="714.616,174.907 
				711.936,177.586 712.22,177.869 710.348,184.554 713.026,181.875 714.896,175.19 			"/>
			<polygon fill-rule="evenodd" clip-rule="evenodd" fill="none" stroke="#221E1E" stroke-width="0.9298" points="711.936,177.586 
				714.616,174.907 714.343,174.635 707.656,176.507 704.978,179.185 711.663,177.313 			"/>
		</g>
		
			<polyline fill-rule="evenodd" clip-rule="evenodd" fill="none" stroke="#221E1E" stroke-width="2" stroke-linecap="round" points="
			719.956,169.565 775.707,113.816 780.587,108.938 		"/>
		<g>
			<polygon fill-rule="evenodd" clip-rule="evenodd" fill="none" stroke="#221E1E" stroke-width="0.9298" points="784.061,105.466 
				781.38,108.145 781.663,108.428 779.792,115.111 782.471,112.434 784.341,105.749 			"/>
			<polygon fill-rule="evenodd" clip-rule="evenodd" fill="none" stroke="#221E1E" stroke-width="0.9298" points="781.38,108.145 
				784.061,105.466 783.787,105.195 777.101,107.066 774.422,109.743 781.107,107.874 			"/>
		</g>
		<g>
			<path fill="#221E1E" d="M716.371,155.086h-7.107l-5.387-8.446h-0.059v8.446h-5.708v-21.959h8.532c2.292,0,4.136,0.564,5.534,1.69
				c1.398,1.125,2.096,2.815,2.096,5.067c0,1.572-0.421,2.931-1.266,4.077c-0.846,1.146-2.024,1.854-3.539,2.126L716.371,155.086z
				 M703.818,142.971h0.554c0.523,0,1.014-0.034,1.471-0.102c0.455-0.067,0.873-0.199,1.251-0.393
				c0.38-0.194,0.68-0.475,0.904-0.845c0.222-0.368,0.334-0.835,0.334-1.397c0-0.564-0.112-1.029-0.334-1.399
				c-0.225-0.368-0.524-0.65-0.904-0.845c-0.378-0.194-0.796-0.325-1.251-0.393c-0.457-0.067-0.947-0.102-1.471-0.102h-0.554
				V142.971z"/>
		</g>
		<g>
			<path fill="#221E1E" d="M773.139,133.39h5.622l4.455,11.737l4.717-11.737h5.68l3.321,21.959h-5.708l-1.603-12.639h-0.059
				l-5.271,12.639h-2.271l-5.039-12.639h-0.059l-1.833,12.639h-5.68L773.139,133.39z"/>
		</g>
		<g>
			<g>
				<path fill="#FFFFFF" d="M740.629,122.431c-0.007-0.013-0.33-0.569-1.557-2.083c-0.604-0.457-0.633-0.468-1.758-0.914
					l-2.673-1.075l0.828-0.192c-1.012-0.492-1.879-1.15-2.602-1.758l-2.84-2.388l1.867,0.858c-0.271-0.295-0.478-0.61-0.593-0.943
					l-0.247-0.713c-0.841-0.768-1.552-1.741-1.996-2.999l-0.856-2.431l0.899,1.021c-0.252-0.514-0.447-1.062-0.585-1.656
					l-0.421-1.807l1.271,1.351c0.221,0.235,0.427,0.458,0.622,0.671c-1.065-1.556-1.592-3.084-1.639-4.662l-0.067-2.316l1.017,2.082
					c0.238,0.488,0.509,0.97,0.805,1.442c-0.646-1.353-0.941-2.647-0.556-3.667l0.503-1.331l0.44,1.353
					c1.013,3.112,3.658,5.781,5.991,8.136c2.722,2.747,5.073,5.12,4.734,7.766c-0.575,2.844,0.318,5.833,0.327,5.862l1.369,4.499
					L740.629,122.431z"/>
				<path fill="#221E1E" d="M730.016,100.431c2.182,6.702,11.299,11.05,10.705,15.684c-0.601,2.964,0.345,6.071,0.345,6.071
					s-0.312-0.561-1.643-2.2c-0.884-0.669-0.63-0.488-3.126-1.497c0.048-0.011,0.102-0.016,0.16-0.016
					c0.303,0,0.736,0.125,1.187,0.125c0.26,0,0.526-0.042,0.776-0.173c-2.138-0.07-3.857-1.245-5.23-2.399
					c1.43,0.658,2.506,1.032,4.001,1.106c-2.504-0.778-4.964-2.051-5.417-3.359c1.02,0.723,2.939,1.777,4.281,1.777
					c0.167,0,0.325-0.017,0.472-0.052c-2.412-0.828-5.774-1.971-6.996-5.439c2.55,2.896,4.549,3.152,7.144,4.279
					c-4.54-2.345-6.944-4.172-7.671-7.292c2.507,2.662,3.028,3.841,7.263,5.583c-4.314-3.108-7.31-6.291-7.416-9.931
					c1.917,3.925,5.586,7.066,7.456,8.415C732.202,107.047,729.188,102.623,730.016,100.431 M730.086,97.416l-1.006,2.662
					c-0.063,0.168-0.111,0.341-0.144,0.52l-1.222-2.501l0.135,4.632c0.019,0.657,0.116,1.305,0.294,1.948l-0.957-1.016l0.705,3.026
					l-1.018-1.156l1.712,4.862c0.461,1.309,1.186,2.323,2.04,3.125l0.095,0.273l-3.855-1.773l5.68,4.775
					c0.464,0.39,0.985,0.8,1.565,1.177l-1.124,0.261l2.936,1.187c0.503,0.204,0.896,0.359,1.208,0.483
					c1.049,0.415,1.089,0.431,1.592,0.811c1.158,1.433,1.47,1.965,1.474,1.97l4.342,7.49l-2.516-8.275
					c-0.008-0.028-0.862-2.912-0.321-5.582l0.007-0.036l0.004-0.036c0.37-2.889-2.177-5.459-4.875-8.182
					c-2.295-2.315-4.895-4.94-5.872-7.939L730.086,97.416L730.086,97.416z"/>
			</g>
			<g>
				<path fill="#FFFFFF" d="M747.775,122.041c0.009-0.03,0.9-3.027,0.333-5.827c-0.345-2.682,2.006-5.055,4.729-7.802
					c2.333-2.355,4.979-5.024,5.991-8.136l0.44-1.353l0.503,1.331c0.385,1.02,0.089,2.314-0.556,3.667
					c0.296-0.473,0.567-0.955,0.805-1.442l1.018-2.083l-0.068,2.317c-0.047,1.578-0.575,3.107-1.64,4.663
					c0.194-0.214,0.401-0.438,0.623-0.673l1.271-1.351l-0.421,1.807c-0.138,0.594-0.333,1.142-0.585,1.656l0.899-1.021l-0.856,2.431
					c-0.443,1.258-1.155,2.231-1.995,2.999l-0.248,0.713c-0.115,0.333-0.323,0.648-0.593,0.943l1.867-0.859l-2.84,2.388
					c-0.723,0.608-1.591,1.267-2.603,1.759l0.827,0.192l-2.668,1.073c-1.157,0.458-1.157,0.458-1.773,0.925
					c-1.216,1.503-1.542,2.068-1.544,2.074l-2.208,3.883L747.775,122.041z"/>
				<path fill="#221E1E" d="M759.304,100.431c0.828,2.192-2.187,6.617-6.29,10.682c1.87-1.349,5.539-4.49,7.456-8.415
					c-0.107,3.64-3.102,6.822-7.416,9.931c4.234-1.742,4.756-2.921,7.263-5.583c-0.727,3.12-3.131,4.947-7.671,7.292
					c2.595-1.127,4.594-1.383,7.144-4.279c-1.222,3.468-4.584,4.611-6.996,5.439c0.146,0.035,0.305,0.052,0.472,0.052
					c1.342,0,3.262-1.054,4.281-1.777c-0.454,1.309-2.913,2.582-5.417,3.359c1.495-0.074,2.571-0.448,4.001-1.106
					c-1.373,1.154-3.093,2.329-5.231,2.399c0.25,0.131,0.517,0.173,0.776,0.173c0.451,0,0.884-0.125,1.187-0.125
					c0.059,0,0.112,0.004,0.16,0.016c-2.496,1.009-2.241,0.828-3.125,1.497c-1.331,1.64-1.643,2.2-1.643,2.2
					s0.945-3.107,0.345-6.071C748.005,111.48,757.122,107.133,759.304,100.431 M760.47,102.698h0.005 M760.316,107.045h0.005
					 M759.789,110.059h0.005 M757.546,113.772h0.005 M756.13,116.026h0.005 M759.233,97.416l-0.88,2.706
					c-0.977,2.999-3.577,5.624-5.872,7.939c-2.697,2.722-5.245,5.293-4.875,8.182l0.004,0.036l0.007,0.036
					c0.544,2.686-0.313,5.553-0.321,5.582l-2.737,8.996l4.568-8.219l0,0c0,0,0.313-0.533,1.469-1.962
					c0.505-0.381,0.564-0.404,1.595-0.813c0.312-0.124,0.703-0.279,1.205-0.481l2.933-1.186l-1.122-0.261
					c0.581-0.378,1.102-0.788,1.566-1.178l5.68-4.775l-3.855,1.773l0.095-0.275c0.854-0.802,1.578-1.816,2.039-3.124l1.712-4.862
					l-1.018,1.156l0.705-3.026l-0.958,1.017c0.178-0.644,0.275-1.292,0.295-1.949l0.137-4.634l-1.223,2.504
					c-0.033-0.179-0.08-0.352-0.144-0.52L759.233,97.416L759.233,97.416z"/>
			</g>
		</g>
		<g>
			<path fill="#221E1E" d="M689.515,191.419l2.083-3.117l-0.062-0.301l-0.636-0.808l-0.192-0.021l-1.941,1.524l-0.692,0.892
				l-1.607-2.047l1.03-0.462l5.82-4.57l0.694-0.894l3.47,4.418l-0.276,2.31l-1.833,1.439l-2.116-0.254l-1.574,2.544l-0.56,1.396
				L689.515,191.419z M695.149,187.168l0.263-0.554l-0.155-0.751l-1.016-1.293l-0.192-0.023l-1.832,1.439l-0.023,0.192l1.016,1.295
				l0.694,0.326l0.599-0.124L695.149,187.168z"/>
			<path fill="#221E1E" d="M696.151,198.52l-2.353-2.3l-0.021-2.131l3.066-3.135l2.132-0.023l2.351,2.3l0.024,2.131l-3.067,3.135
				L696.151,198.52z M699.452,194.655l0.188-0.583l-0.201-0.579l-0.684-0.671l-0.584-0.188l-0.579,0.199l-1.917,1.961l-0.188,0.583
				l0.201,0.579l0.684,0.671l0.584,0.187l0.579-0.201L699.452,194.655z"/>
			<path fill="#221E1E" d="M702.739,204.005l-2.354-1.842l-0.256-2.116l2.701-3.453l2.117-0.257l2.352,1.842l-0.674,1.907
				l-0.718-1.084l-0.972-0.761l-0.601-0.121l-0.554,0.263l-1.563,1.996l-0.151,0.751l0.327,0.692l0.811,0.632l1.225,0.437
				L702.739,204.005z"/>
			<path fill="#221E1E" d="M708.412,207.741l0.426-0.945l0.655-2.74l-0.174-0.109l-1.039,0.243l-0.261,0.161l-0.833,1.338
				l-0.347,1.076l-1.978-1.231l0.812-0.786l4.054-6.516l0.348-1.076l1.745,1.086l-2.644,4.248l-0.165,0.137l2.643-0.614l0.666-0.554
				l1.921,1.193l0.043,0.189l-2.924,0.683l-0.856,4.229l0.003,1.293L708.412,207.741z"/>
			<path fill="#221E1E" d="M723.046,214.409l0.636-0.935l1.367-3.732l-0.067-0.609l-0.422-0.445l-0.45-0.166l-0.608,0.069
				l-0.558,0.525l-1.321,3.604l-0.119,1.123l-2.188-0.801l0.634-0.935l1.368-3.73l-0.068-0.609l-0.42-0.446l-0.451-0.166
				l-0.609,0.069l-0.557,0.527l-1.322,3.602l-0.118,1.124l-2.188-0.803l0.636-0.934l1.628-4.44l-0.122-1.066l2.166,0.063
				l-0.107,0.691l1.37-0.154l1.289,0.472l0.664,0.972l1.522-0.17l1.609,0.589l0.814,1.76l-1.698,4.632l-0.12,1.123L723.046,214.409z
				"/>
			<path fill="#221E1E" d="M734.26,210.644l-4.023,6.859l-1.461,0.955l-1.408-0.294l1.997-2.522l-0.739-6.175l-0.313-1.185
				l2.416,0.503l-0.36,1.045l0.401,3.445l-0.017,0.415l0.15-0.388l1.747-2.995l0.09-1.101l2.28,0.477L734.26,210.644z"/>
			<path fill="#221E1E" d="M748.144,211.503l-2.257,6.258l-1.302-0.028l-1.283-4.139l-0.06-0.413l-0.077,0.41l-1.457,4.082
				l-1.302-0.026l-1.991-6.349l-0.525-1.107l2.466,0.054l-0.16,1.092l0.964,3.105l0.06,0.412l0.077-0.41l1.093-3.062l-0.114-1.097
				l2.192,0.045l-0.159,1.094l0.962,3.104l0.061,0.413l0.076-0.41l1.093-3.062l-0.114-1.099l2.329,0.05L748.144,211.503z"/>
			<path fill="#221E1E" d="M751.693,214.075l0.089,0.748l0.422,0.639l0.721,0.261l1.741-0.209l1.137-0.549l-0.414,1.981
				l-3.646,0.435l-1.677-1.318l-0.519-4.354l1.318-1.675l2.995-0.358l1.674,1.32l0.31,2.585L751.693,214.075z M753.779,211.893
				l-0.338-0.512l-0.577-0.207l-0.679,0.082l-0.514,0.336l-0.206,0.577l0.08,0.681l2.314-0.276L753.779,211.893z"/>
			<path fill="#221E1E" d="M763.475,215.206l-1.929,0.48l-1.048-0.234l-0.35,0.583l-1.263,0.314l-2.12-8.512l-0.531-0.997
				l1.929-0.48l0.729,2.926l0.93-0.798l1.862-0.463l1.827,1.099l1.061,4.254L763.475,215.206z M761.915,210.367l-0.397-0.465
				l-0.6-0.134l-0.864,0.214l-0.466,0.4l-0.165,0.748l0.596,2.392l0.498,0.584l0.599,0.132l0.863-0.214l0.466-0.4l0.134-0.597
				L761.915,210.367z"/>
			<path fill="#221E1E" d="M771.939,212.271l-0.393-0.435l-0.818,0.914l-1.785,0.703l-1.956-0.85l-1.609-4.079l0.851-1.956
				l1.849-0.729l1.068,0.094l-0.679-1.72l-0.657-0.92l1.912-0.753l3.219,8.159l0.655,0.918L771.939,212.271z M769.875,207.783
				l-0.57-0.512l-0.61-0.055l-0.83,0.328l-0.408,0.455l-0.055,0.61l1.007,2.551l0.455,0.408l0.61,0.055l0.828-0.328l0.41-0.457
				l0.066-0.761L769.875,207.783z"/>
			<path fill="#221E1E" d="M776.045,206.697l0.359,0.661l0.63,0.438l0.766-0.028l1.539-0.842l0.85-0.932l0.355,1.993l-3.224,1.76
				l-2.047-0.601l-2.101-3.85l0.601-2.044l2.646-1.446l2.044,0.601l1.248,2.285L776.045,206.697z M777.169,203.896l-0.503-0.352
				l-0.612,0.023l-0.603,0.328l-0.35,0.503l0.023,0.612l0.328,0.602l2.044-1.117L777.169,203.896z"/>
			<path fill="#221E1E" d="M786.053,204.358l-2.7,1.879l-1.563-1.166l1.213-0.343l1.438-1.002l0.221-0.405l-0.064-0.454
				l-0.196-0.282l-0.574-0.103l-1.601,0.698l-1.717-0.308l-0.861-1.238l0.377-2.098l2.417-1.683l1.564,1.166l-1.248,0.367
				l-1.124,0.783l-0.22,0.405l0.065,0.455l0.195,0.281l0.572,0.102l1.602-0.698l1.718,0.308l0.86,1.238L786.053,204.358z"/>
			<path fill="#221E1E" d="M784.965,194.961l-0.739,0.609l-0.772-0.075l-0.522-0.634l0.075-0.771l0.74-0.61l0.771,0.075l0.523,0.634
				L784.965,194.961z M788.835,202.249l-0.485-1.021l-3.005-3.65l-0.98-0.437l1.267-2.02l4.096,4.974l0.906,0.673L788.835,202.249z"
				/>
			<path fill="#221E1E" d="M792.481,190.327l5.034,5.045l-0.005,2.326l-1.823,1.82l-0.774,0.387l-1.426-0.709l1.164-0.581
				l1.165-1.161l0.193-0.581l-0.192-0.582l-0.823-0.825l-0.339,1.017l-1.311,1.307l-2.133-0.003l-2.708-2.717l0.003-2.326
				l1.31-1.306l1.163-0.385l-0.242-0.534l1.166-1.163L792.481,190.327z M792.141,192.507l-0.727-0.243l-0.582,0.192l-0.582,0.581
				l-0.195,0.582l0.193,0.581l1.742,1.747l0.58,0.196l0.584-0.194l0.581-0.581l0.195-0.581l-0.241-0.728L792.141,192.507z"/>
			<path fill="#221E1E" d="M801.422,189.358l-0.695-0.89l-3.134-2.446l-0.601-0.121l-0.554,0.263l-0.38,0.487l-0.12,0.601
				l0.329,0.691l3.024,2.362l1.032,0.458l-1.434,1.837l-0.695-0.892l-3.728-2.909l-1.051-0.213l0.727-2.041l0.623,0.313l0.273-1.352
				l0.969-1.243l1.924-0.236l3.89,3.035l1.032,0.46L801.422,189.358z"/>
		</g>
		<g>
			<path fill="#221E1E" d="M718.027,84.309c0.669-1.867,2.196-7.108,2.459-8.074l1.203,0.159c-0.173,2.015,0.657,3.928,0.718,5.357
				c0.388-0.559,0.782-1.295,1.05-2.056l0.051-0.135c0.212-0.022,0.521,0.095,0.676,0.271c-0.558,1.546-1.492,3.132-2.784,3.828
				c-0.012,0.005-0.02,0.022-0.033,0.027c-0.122,0.062-0.232,0.119-0.361,0.167c-1.216,0.462-1.869-0.52-1.869-0.52l0.668-0.753
				c0,0,0.364,0.418,0.813,0.25c1.268-0.482,0.041-2.861,0.04-4.443c-0.236,0.808-1.529,5.037-1.954,6.195
				C718.462,84.526,718.206,84.432,718.027,84.309z"/>
			<path fill="#221E1E" d="M726.936,78.55c0.207,0.023,0.507,0.161,0.655,0.316c-0.73,1.655-1.662,3.254-2.79,3.597
				c-1.101,0.334-1.79-0.474-1.521-1.658l1.302-5.579l1.363-0.413l-1.377,5.987c-0.15,0.634,0.084,0.792,0.385,0.701
				c0.603-0.184,1.285-1.38,1.922-2.819L726.936,78.55z M725.423,72.481c0.445-0.136,0.907,0.11,1.043,0.557
				c0.135,0.445-0.116,0.894-0.561,1.029c-0.447,0.135-0.891-0.102-1.027-0.547C724.742,73.073,724.977,72.616,725.423,72.481z"/>
			<path fill="#221E1E" d="M733.525,77.026c0.206,0.038,0.493,0.201,0.629,0.366c-0.856,1.593-1.909,3.117-3.06,3.373
				c-1.124,0.248-1.748-0.61-1.389-1.771l1.112-3.545c0.375-1.163-0.652-1.302-2.191,1.833l-1.31,4.177l-1.405,0.311l2.389-7.548
				l1.392-0.308l-0.321,1.025c0.537-0.876,1.095-1.336,1.696-1.469c0.776-0.172,1.521,0.463,1.153,1.653l-1.23,3.965
				c-0.198,0.619,0.022,0.796,0.33,0.728c0.615-0.137,1.389-1.276,2.135-2.663L733.525,77.026z"/>
			<path fill="#221E1E" d="M734.77,77.455c-0.507,1.225,0.079,1.703,0.949,1.594c0.992-0.127,2.178-1.229,3.048-2.54l0.082-0.122
				c0.201,0.059,0.472,0.244,0.592,0.423c-0.997,1.505-2.431,2.958-4.033,3.16c-1.673,0.212-2.608-1.078-1.915-2.699l1.159-2.73
				c0.468-1.108,1.303-1.822,2.445-1.966c1.154-0.146,2.013,0.739,1.416,2.141l-0.159,0.378l-1.154,0.147l0.159-0.38
				c0.657-1.574-0.813-1.623-1.452-0.12L734.77,77.455z"/>
			<path fill="#221E1E" d="M740.167,76.626l-0.126,0.251c-0.604,1.181-0.057,1.703,0.818,1.663c0.999-0.045,2.269-1.05,3.24-2.289
				l0.091-0.114c0.195,0.074,0.451,0.281,0.557,0.469c-1.114,1.422-2.656,2.755-4.272,2.831c-1.683,0.077-2.513-1.283-1.694-2.842
				l1.373-2.628c0.554-1.069,1.444-1.713,2.593-1.767c1.163-0.054,1.948,0.898,1.242,2.247l-0.188,0.367
				C742.818,76.708,741.103,76.966,740.167,76.626z M740.545,75.909c0.542,0.167,1.461,0.152,2.091-1.042l0.189-0.366
				c0.779-1.518-0.681-1.681-1.438-0.236L740.545,75.909z"/>
			<path fill="#221E1E" d="M753.065,75.096c1.004-1.358-0.323-2.138-1.424-0.638l-0.457,0.587l-1.445-0.146l0.624-0.874
				c1.879-2.675,5.618-0.965,3.771,1.673c-1.207,1.723-2.866,2.493-4.079,2.77l2.494,0.251l-0.622,0.86l-4.99-0.5l0.624-0.86
				C749.681,77.951,751.391,77.379,753.065,75.096z"/>
			<path fill="#221E1E" d="M755.747,76.091l0.922-1.062c1.081-1.242,1.997-1.507,3.075-1.298c1.316,0.259,1.825,1.797,0.69,3.097
				l-1.892,2.171c-2.359,2.707-6.118,0.868-3.603-1.991L755.747,76.091z M755.75,78.005c-1.119,1.288,0.44,1.817,1.32,0.816
				l2.391-2.729c1.133-1.287-0.084-2.21-1.392-0.734l-0.896,1.012L755.75,78.005z"/>
			<path fill="#221E1E" d="M762.603,75.758c1.043-0.062,1.975-0.083,3.042-0.537l0.188,1.348l-4.045,3.941l1.213,0.341l-0.786,0.775
				l-3.573-1.007l0.788-0.774l1.134,0.319l3.707-3.608c-0.502,0.114-1.051,0.146-1.619,0.141L762.603,75.758z"/>
			<path fill="#221E1E" d="M767.674,79.96c1,0.375,1.624,0.271,2.299-0.281c0.845-0.693,0.991-1.399,0.439-1.606
				c-0.333-0.124-0.889-0.01-1.518,0.5l-0.443,0.361l-1.359-0.509l0.582-0.499c1.27-1.047,2.218-1.161,3.245-0.776
				c1.449,0.544,1.275,2.264,0.176,3.167c-0.976,0.807-1.74,0.974-2.632,0.815c0.199,0.719,0.009,1.656-0.899,2.401
				c-1.416,1.166-2.761,1.043-3.646,0.711c-1.656-0.619-1.253-2.59,0.054-3.388l1.258,0.47c0,0-0.778,0.442-1.067,1.209
				c-0.303,0.81,0.807,1.561,2.344,0.308c1.1-0.905,1.089-1.932,0.345-2.212L767.674,79.96z"/>
		</g>
		<polygon fill="#221E1E" stroke="#FFFFFF" stroke-miterlimit="10" points="744.655,180.625 739.026,183.586 740.104,177.316 
			735.548,172.875 741.843,171.958 744.655,166.253 747.478,171.958 753.773,172.875 749.213,177.316 750.29,183.586 		"/>
	</g>
	<g>
		<g>
			<g>
				<polygon fill-rule="evenodd" clip-rule="evenodd" fill="none" stroke="#221E1E" stroke-miterlimit="10" points="
					645.967,613.411 641.547,613.411 641.545,613.878 634.484,617.851 638.904,617.853 645.967,613.878 				"/>
				<polygon fill-rule="evenodd" clip-rule="evenodd" fill="none" stroke="#221E1E" stroke-miterlimit="10" points="
					641.547,613.411 645.967,613.411 645.967,612.962 638.902,608.989 634.482,608.989 641.547,612.962 				"/>
			</g>
		</g>
		<g>
			<g>
				<polygon fill-rule="evenodd" clip-rule="evenodd" fill="none" stroke="#221E1E" stroke-miterlimit="10" points="
					650.367,613.411 645.943,613.411 645.943,613.878 638.883,617.853 643.303,617.853 650.367,613.882 				"/>
				<polygon fill-rule="evenodd" clip-rule="evenodd" fill="none" stroke="#221E1E" stroke-miterlimit="10" points="
					645.943,613.411 650.367,613.411 650.367,612.964 643.303,608.989 638.881,608.989 645.943,612.964 				"/>
			</g>
		</g>
		<g>
			<g>
				<polygon fill-rule="evenodd" clip-rule="evenodd" fill="none" stroke="#221E1E" stroke-miterlimit="10" points="
					641.547,613.411 637.123,613.411 637.125,613.878 630.061,617.853 634.484,617.853 641.545,613.878 				"/>
				<polygon fill-rule="evenodd" clip-rule="evenodd" fill="none" stroke="#221E1E" stroke-miterlimit="10" points="
					637.123,613.411 641.547,613.411 641.547,612.962 634.482,608.989 630.061,608.989 637.123,612.96 				"/>
			</g>
		</g>
	</g>
	<g>
		<g>
			<path fill="#FFFFFF" d="M1175.611,102.297h-8.297l-6.289-9.861h-0.068v9.861h-6.664V76.66h9.961c2.676,0,4.828,0.658,6.461,1.973
				s2.447,3.287,2.447,5.916c0,1.836-0.492,3.422-1.479,4.76s-2.363,2.164-4.131,2.482L1175.611,102.297z M1160.957,88.152h0.646
				c0.611,0,1.184-0.039,1.717-0.119c0.531-0.078,1.02-0.232,1.461-0.459c0.443-0.227,0.793-0.555,1.055-0.986
				c0.26-0.43,0.391-0.975,0.391-1.631c0-0.658-0.131-1.201-0.391-1.633c-0.262-0.43-0.611-0.76-1.055-0.986
				c-0.441-0.227-0.93-0.379-1.461-0.459c-0.533-0.078-1.105-0.119-1.717-0.119h-0.646V88.152z"/>
		</g>
		<g>
			<path fill="#FFFFFF" d="M1187.249,76.66h6.563l5.201,13.703l5.508-13.703h6.631l3.877,25.637h-6.664l-1.871-14.756h-0.068
				l-6.154,14.756h-2.65l-5.883-14.756h-0.068l-2.141,14.756h-6.631L1187.249,76.66z"/>
		</g>
	</g>
	<rect x="1502.66" y="408.067" fill="#221E1E" width="0" height="0"/>
	<text transform="matrix(1 0 0 1 1728.6909 400.6646)" fill="#221E1E" font-family="'Exo-Black'" font-size="30">WEBDESIGN</text>
	<text transform="matrix(1 0 0 1 1783.4048 548.0674)" fill="#221E1E" font-family="'Exo-BoldItalic'" font-size="22">Scroll</text>
	<polygon fill-rule="evenodd" clip-rule="evenodd" fill="none" stroke="#221E1E" stroke-width="2" stroke-miterlimit="10" points="
		743.437,418.949 732.829,411.145 732.826,418.869 743.437,430.483 744.678,430.469 745.878,430.454 756.491,418.793 
		756.494,411.067 745.86,418.983 	"/>
	<g>
		<path fill-rule="evenodd" clip-rule="evenodd" fill="#FFFFFF" d="M1332.66,301.089c0,1.093-0.886,1.979-1.979,1.979h-20.043
			c-1.093,0-1.979-0.886-1.979-1.979v-0.043c0-1.093,0.886-1.979,1.979-1.979h20.043c1.093,0,1.979,0.886,1.979,1.979V301.089z"/>
		<path fill-rule="evenodd" clip-rule="evenodd" fill="#FFFFFF" d="M1332.66,310.089c0,1.093-0.886,1.979-1.979,1.979h-20.043
			c-1.093,0-1.979-0.886-1.979-1.979v-0.043c0-1.093,0.886-1.979,1.979-1.979h20.043c1.093,0,1.979,0.886,1.979,1.979V310.089z"/>
		<path fill-rule="evenodd" clip-rule="evenodd" fill="#FFFFFF" d="M1332.66,319.089c0,1.093-0.886,1.979-1.979,1.979h-20.043
			c-1.093,0-1.979-0.886-1.979-1.979v-0.043c0-1.093,0.886-1.979,1.979-1.979h20.043c1.093,0,1.979,0.886,1.979,1.979V319.089z"/>
	</g>
	<path fill-rule="evenodd" clip-rule="evenodd" fill="#221E1E" d="M620.66,24.257c0,2.264-0.77,4.81-2.94,4.81h-23.06v-26h23.06
		c2.659,0,2.774,0,2.94,3.013V24.257z"/>
	<g>
		<path fill-rule="evenodd" clip-rule="evenodd" fill="#FFFFFF" d="M615.66,10.763c0,0.721-0.584,1.305-1.305,1.305h-13.391
			c-0.721,0-1.305-0.584-1.305-1.305v-0.391c0-0.721,0.584-1.305,1.305-1.305h13.391c0.721,0,1.305,0.584,1.305,1.305V10.763z"/>
		<path fill-rule="evenodd" clip-rule="evenodd" fill="#FFFFFF" d="M615.66,15.763c0,0.721-0.584,1.305-1.305,1.305h-13.391
			c-0.721,0-1.305-0.584-1.305-1.305v-0.391c0-0.721,0.584-1.305,1.305-1.305h13.391c0.721,0,1.305,0.584,1.305,1.305V15.763z"/>
		<path fill-rule="evenodd" clip-rule="evenodd" fill="#FFFFFF" d="M615.66,21.763c0,0.721-0.584,1.305-1.305,1.305h-13.391
			c-0.721,0-1.305-0.584-1.305-1.305v-0.391c0-0.721,0.584-1.305,1.305-1.305h13.391c0.721,0,1.305,0.584,1.305,1.305V21.763z"/>
	</g>
	<path fill-rule="evenodd" clip-rule="evenodd" fill="#221E1E" d="M1339.66,1010.86c0,3.457-1.5,7.207-4.837,7.207h-35.163v-40
		h35.163c4.087,0,5.837,1.5,4.837,5.04V1010.86z"/>
	<g>
		<path fill-rule="evenodd" clip-rule="evenodd" fill="#FFFFFF" d="M1330.66,989.089c0,1.093-0.886,1.979-1.979,1.979h-20.043
			c-1.093,0-1.979-0.886-1.979-1.979v-0.043c0-1.093,0.886-1.979,1.979-1.979h20.043c1.093,0,1.979,0.886,1.979,1.979V989.089z"/>
		<path fill-rule="evenodd" clip-rule="evenodd" fill="#FFFFFF" d="M1330.66,998.089c0,1.093-0.886,1.979-1.979,1.979h-20.043
			c-1.093,0-1.979-0.886-1.979-1.979v-0.043c0-1.093,0.886-1.979,1.979-1.979h20.043c1.093,0,1.979,0.886,1.979,1.979V998.089z"/>
		<path fill-rule="evenodd" clip-rule="evenodd" fill="#FFFFFF" d="M1330.66,1007.089c0,1.093-0.886,1.979-1.979,1.979h-20.043
			c-1.093,0-1.979-0.886-1.979-1.979v-0.043c0-1.093,0.886-1.979,1.979-1.979h20.043c1.093,0,1.979,0.886,1.979,1.979V1007.089z"/>
	</g>
	<rect x="2519.66" y="14.067" fill="#F4F4F4" width="25" height="25"/>
	<rect x="2531.16" y="25.567" fill="#CCCCCC" width="2" height="2"/>
	<g>
		<g>
			<rect x="1147.66" y="533.067" fill-rule="evenodd" clip-rule="evenodd" fill="#FFFFFF" width="30" height="30"/>
			<g>
				<path fill="#221E1E" d="M1165.943,540.97v2.448h-1.331c-0.396,0-0.647,0.106-0.773,0.323c-0.09,0.145-0.126,0.396-0.126,0.738
					v1.115h2.267l-0.27,2.465h-1.997v7.105h-2.933v-7.105h-1.439v-2.465h1.439v-1.475c0-1.512,0.522-2.483,1.547-2.898
					c0.504-0.195,0.935-0.252,1.385-0.252H1165.943z"/>
			</g>
		</g>
		<g>
			<rect x="1191.66" y="533.067" fill-rule="evenodd" clip-rule="evenodd" fill="#FFFFFF" width="30" height="30"/>
			<path fill-rule="evenodd" clip-rule="evenodd" fill="#221E1E" d="M1204.809,554.729c-0.661,0-2.041-0.057-2.087-0.062
				c-1.333-0.135-2.582-0.539-3.75-1.19c-0.115-0.063-0.255-0.105-0.336-0.248c0.847,0.062,1.654,0.002,2.465-0.195
				c0.806-0.197,1.483-0.627,2.175-1.041c0.082-0.05,0.247-0.092,0.179-0.232c-0.069-0.145-0.152,0.063-0.243,0.03
				c-0.051-0.019-0.108-0.019-0.162-0.028c-1.162-0.182-1.965-0.85-2.506-1.864c-0.173-0.322-0.126-0.378,0.265-0.37
				c0.313,0.006,0.626,0.013,1.003-0.107c-0.481-0.145-0.897-0.289-1.224-0.549c-0.737-0.591-1.238-1.346-1.374-2.311
				c-0.047-0.334,0.019-0.41,0.341-0.314c0.346,0.104,0.669,0.318,1.085,0.191c-0.284-0.188-0.501-0.43-0.694-0.678
				c-0.745-0.954-0.911-2.029-0.53-3.172c0.179-0.536,0.14-0.666,0.656-0.15c0.64,0.643,1.293,1.258,2.088,1.713
				c1.271,0.732,2.613,1.215,4.083,1.344c0.344,0.027,0.389-0.078,0.34-0.366c-0.274-1.591,1.059-3.431,2.767-3.645
				c0.122-0.015,0.723-0.146,1.245-0.04c0.554,0.115,1.049,0.377,1.477,0.756c0.194,0.174,0.395,0.271,0.675,0.168
				c0.495-0.18,1.029-0.257,1.477-0.567c0.073-0.05,0.148-0.128,0.274-0.097c-0.036,0.115-0.07,0.227-0.103,0.338
				c-0.12,0.193-0.24,0.391-0.36,0.585c-0.319,0.204-0.477,0.567-0.789,0.786c0.398-0.001,0.771-0.101,1.146-0.194
				c0.021,0,0.043-0.001,0.065-0.001c0.144,0.041,0.342,0.053,0.153,0.277c-0.359,0.35-0.708,0.709-1.084,1.041
				c-0.146,0.129-0.218,0.241-0.215,0.44c0.02,1.005-0.128,1.987-0.424,2.95c-0.513,1.668-1.403,3.105-2.656,4.32
				c-0.088,0.078-0.175,0.158-0.262,0.236c-0.819,0.691-1.731,1.227-2.718,1.639c-0.143,0.074-0.923,0.273-1.017,0.326
				C1206.231,554.448,1205.338,554.688,1204.809,554.729z"/>
		</g>
	</g>
	<g>
		<g>
			<rect x="476.66" y="395.067" fill-rule="evenodd" clip-rule="evenodd" fill="#FFFFFF" width="26" height="26"/>
			<g>
				<path fill="#221E1E" d="M492.39,402.056v2.106h-1.145c-0.34,0-0.557,0.092-0.666,0.278c-0.078,0.124-0.108,0.341-0.108,0.635
					v0.959h1.95l-0.231,2.121h-1.718v6.113h-2.523v-6.113h-1.239v-2.121h1.239v-1.269c0-1.3,0.449-2.137,1.331-2.494
					c0.434-0.168,0.805-0.217,1.192-0.217H492.39z"/>
			</g>
		</g>
		<g>
			<rect x="514.66" y="395.067" fill-rule="evenodd" clip-rule="evenodd" fill="#FFFFFF" width="26" height="26"/>
			<path fill-rule="evenodd" clip-rule="evenodd" fill="#221E1E" d="M525.828,413.894c-0.568,0-1.756-0.049-1.795-0.053
				c-1.147-0.116-2.222-0.464-3.227-1.024c-0.099-0.055-0.219-0.091-0.289-0.213c0.729,0.053,1.423,0.001,2.121-0.168
				c0.694-0.17,1.276-0.54,1.871-0.896c0.07-0.042,0.213-0.079,0.154-0.2c-0.06-0.125-0.131,0.054-0.209,0.026
				c-0.044-0.016-0.093-0.016-0.14-0.024c-1-0.156-1.691-0.731-2.156-1.604c-0.149-0.277-0.108-0.325,0.228-0.318
				c0.269,0.005,0.539,0.011,0.863-0.092c-0.414-0.125-0.772-0.249-1.053-0.472c-0.634-0.508-1.065-1.158-1.182-1.988
				c-0.04-0.288,0.017-0.353,0.293-0.271c0.297,0.089,0.575,0.274,0.934,0.165c-0.245-0.161-0.431-0.37-0.598-0.583
				c-0.641-0.821-0.784-1.746-0.456-2.729c0.154-0.461,0.121-0.573,0.564-0.129c0.551,0.553,1.113,1.082,1.797,1.474
				c1.094,0.63,2.248,1.045,3.513,1.156c0.296,0.023,0.334-0.067,0.292-0.315c-0.236-1.369,0.911-2.952,2.38-3.136
				c0.105-0.013,0.623-0.125,1.071-0.035c0.477,0.1,0.902,0.325,1.271,0.65c0.167,0.15,0.34,0.234,0.581,0.145
				c0.426-0.154,0.885-0.221,1.27-0.488c0.063-0.043,0.128-0.11,0.236-0.083c-0.031,0.099-0.061,0.195-0.088,0.291
				c-0.104,0.166-0.207,0.336-0.31,0.503c-0.275,0.176-0.411,0.488-0.679,0.676c0.343,0,0.664-0.086,0.985-0.167
				c0.019,0,0.037-0.001,0.056-0.001c0.124,0.036,0.294,0.045,0.131,0.239c-0.309,0.301-0.609,0.61-0.933,0.896
				c-0.126,0.111-0.188,0.208-0.185,0.379c0.017,0.865-0.111,1.71-0.365,2.538c-0.441,1.435-1.208,2.672-2.285,3.717
				c-0.076,0.067-0.15,0.136-0.226,0.203c-0.705,0.595-1.49,1.055-2.339,1.41c-0.123,0.064-0.794,0.235-0.875,0.281
				C527.052,413.652,526.283,413.858,525.828,413.894z"/>
		</g>
	</g>
	
		<rect x="2520.16" y="46.567" fill-rule="evenodd" clip-rule="evenodd" fill="#FFFFFF" stroke="#000000" stroke-miterlimit="10" width="30" height="30"/>
	<g>
		<path fill="#221E1E" d="M2538.943,53.97v2.448h-1.331c-0.396,0-0.647,0.106-0.773,0.323c-0.091,0.145-0.126,0.396-0.126,0.738
			v1.115h2.267l-0.27,2.465h-1.997v7.105h-2.933V61.06h-1.439v-2.465h1.439V57.12c0-1.512,0.522-2.483,1.548-2.898
			c0.504-0.195,0.935-0.252,1.385-0.252H2538.943z"/>
	</g>
	
		<rect x="2564.16" y="46.567" fill-rule="evenodd" clip-rule="evenodd" fill="#FFFFFF" stroke="#000000" stroke-miterlimit="10" width="30" height="30"/>
	
		<rect x="2520.16" y="83.567" fill-rule="evenodd" clip-rule="evenodd" fill="#FFFFFF" stroke="#000000" stroke-miterlimit="10" width="30" height="30"/>
	<path fill-rule="evenodd" clip-rule="evenodd" fill="#221E1E" d="M2577.809,67.729c-0.66,0-2.041-0.057-2.087-0.062
		c-1.333-0.135-2.582-0.539-3.75-1.19c-0.114-0.063-0.255-0.105-0.336-0.248c0.847,0.062,1.654,0.002,2.465-0.195
		c0.806-0.197,1.483-0.627,2.175-1.041c0.082-0.05,0.247-0.092,0.179-0.232c-0.069-0.145-0.152,0.063-0.243,0.03
		c-0.051-0.019-0.108-0.019-0.162-0.028c-1.162-0.182-1.965-0.85-2.506-1.864c-0.173-0.322-0.126-0.378,0.265-0.37
		c0.313,0.006,0.626,0.013,1.003-0.107c-0.481-0.145-0.897-0.289-1.224-0.549c-0.737-0.591-1.237-1.346-1.374-2.311
		c-0.047-0.334,0.02-0.41,0.341-0.314c0.346,0.104,0.669,0.318,1.085,0.191c-0.284-0.188-0.501-0.43-0.694-0.678
		c-0.745-0.954-0.911-2.029-0.53-3.172c0.179-0.536,0.141-0.666,0.656-0.15c0.64,0.643,1.293,1.258,2.088,1.713
		c1.271,0.732,2.613,1.215,4.083,1.344c0.344,0.027,0.389-0.078,0.34-0.366c-0.274-1.591,1.059-3.431,2.767-3.645
		c0.122-0.015,0.724-0.146,1.246-0.04c0.553,0.115,1.049,0.377,1.477,0.756c0.194,0.174,0.395,0.271,0.675,0.168
		c0.495-0.18,1.029-0.257,1.477-0.567c0.073-0.05,0.148-0.128,0.274-0.097c-0.036,0.115-0.07,0.227-0.104,0.338
		c-0.12,0.193-0.24,0.391-0.359,0.585c-0.32,0.204-0.478,0.567-0.789,0.786c0.398-0.001,0.771-0.101,1.146-0.194
		c0.021,0,0.043-0.001,0.065-0.001c0.143,0.041,0.342,0.053,0.152,0.277c-0.359,0.35-0.708,0.709-1.084,1.041
		c-0.146,0.129-0.218,0.241-0.215,0.44c0.02,1.005-0.129,1.987-0.424,2.95c-0.514,1.668-1.404,3.105-2.656,4.32
		c-0.088,0.078-0.175,0.158-0.262,0.236c-0.819,0.691-1.732,1.227-2.719,1.639c-0.143,0.074-0.924,0.273-1.017,0.326
		C2579.231,67.448,2578.338,67.688,2577.809,67.729z"/>
	<path fill-rule="evenodd" clip-rule="evenodd" fill="#FCFDFD" d="M2650.676,289.501c1.105,3.153-1.648,4.551-2.995,6.589
		l-0.045-0.046c0.002-1.086-0.178-2.115-0.939-2.958C2648.022,291.892,2649.35,290.696,2650.676,289.501z"/>
	<path fill-rule="evenodd" clip-rule="evenodd" fill="#FDFDFE" d="M2713.644,152.901c0.325-0.021,0.651-0.043,0.978-0.064
		C2714.295,152.858,2713.969,152.88,2713.644,152.901z"/>
	<path fill-rule="evenodd" clip-rule="evenodd" fill="#FCFDFD" d="M2647.681,296.091c-0.277,0.773-0.487,1.625-1.578,1.549
		c-0.12-0.008-0.335-0.23-0.32-0.326c0.156-1.077,1.101-1.039,1.854-1.269C2647.636,296.045,2647.681,296.091,2647.681,296.091z"/>
	<path fill-rule="evenodd" clip-rule="evenodd" fill="#FDFDFE" d="M2704.491,149.524c1.478-1.29,2.753-1.401,4.555-0.647
		C2707.582,150.359,2706.269,150.222,2704.491,149.524z"/>
	<text transform="matrix(1 0 0 1 2468.4932 28.4844)" font-family="'MyriadPro-Regular'" font-size="12">Pattern</text>
	<text transform="matrix(1 0 0 1 2468.4932 62.4844)" font-family="'MyriadPro-Regular'" font-size="12">Icons</text>
	<g>
		<path fill="#036564" d="M2541.328,92.067c0,5.917-4.633,5-6.667,19.083c-2.048-14.083-6.667-12.875-6.667-19.083
			c0-3.682,2.985-6.667,6.667-6.667S2541.328,88.386,2541.328,92.067z"/>
		<circle fill="#FFFFFF" cx="2534.661" cy="92.4" r="2.833"/>
	</g>
	<g>
		<path fill="#036564" d="M1777.913,3464.918c0,14.659-11.479,12.39-16.52,47.286c-5.074-34.896-16.519-31.901-16.519-47.286
			c0-9.122,7.397-16.517,16.519-16.517C1770.516,3448.401,1777.913,3455.796,1777.913,3464.918z"/>
		<path fill="#FFFFFF" d="M1768.414,3465.743c0,3.879-3.141,7.02-7.018,7.02c-3.881,0-7.022-3.141-7.022-7.02s3.141-7.02,7.022-7.02
			C1765.272,3458.724,1768.414,3461.864,1768.414,3465.743z"/>
	</g>
	<text transform="matrix(1 0 0 1 2468.4932 93.6514)" font-family="'MyriadPro-Regular'" font-size="12">Map               </text>
	<text transform="matrix(1 0 0 1 2468.4932 142.3179)" font-family="'MyriadPro-Regular'" font-size="12">Colors</text>
	<circle fill-rule="evenodd" clip-rule="evenodd" fill="#221E1E" cx="2533.161" cy="140.907" r="15"/>
	<circle fill-rule="evenodd" clip-rule="evenodd" fill="#036564" cx="2573.161" cy="140.907" r="15"/>
	<circle fill-rule="evenodd" clip-rule="evenodd" fill="#00FF8B" cx="2613.161" cy="140.907" r="15"/>
	<text transform="matrix(1 0 0 1 1158.7002 253.1084)"><tspan x="0" y="0" fill="#FFFFFF" font-family="'Exo-Bold'" font-size="20">Home </tspan><tspan x="0.88" y="30" fill="#FFFFFF" font-family="'Exo-Bold'" font-size="20">Skills</tspan><tspan x="-1.43" y="60" fill="#FFFFFF" font-family="'Exo-Bold'" font-size="20">About</tspan><tspan x="0.7" y="90" fill="#FFFFFF" font-family="'Exo-Bold'" font-size="20">Work</tspan><tspan x="-8.6" y="120" fill="#FFFFFF" font-family="'Exo-Bold'" font-size="20">Contact</tspan></text>
	<text transform="matrix(1 0 0 1 484.7964 161.1172)"><tspan x="0" y="0" fill="#FFFFFF" font-family="'Exo-Bold'" font-size="18">Home </tspan><tspan x="0.792" y="28" fill="#FFFFFF" font-family="'Exo-Bold'" font-size="18">Skills</tspan><tspan x="-1.287" y="56" fill="#FFFFFF" font-family="'Exo-Bold'" font-size="18">About</tspan><tspan x="0.63" y="84" fill="#FFFFFF" font-family="'Exo-Bold'" font-size="18">Work</tspan><tspan x="-7.74" y="112" fill="#FFFFFF" font-family="'Exo-Bold'" font-size="18">Contact</tspan></text>
	<circle fill-rule="evenodd" clip-rule="evenodd" fill="#00FF8B" cx="1139.893" cy="89.479" r="4.399"/>
	<circle fill-rule="evenodd" clip-rule="evenodd" fill="#00FF8B" cx="1229.427" cy="89.479" r="4.399"/>
	<g>
		<polygon fill-rule="evenodd" clip-rule="evenodd" fill="none" stroke="#036564" stroke-miterlimit="10" points="466.169,81.621 
			462.233,81.623 462.232,82.037 455.945,85.575 459.881,85.577 466.168,82.038 		"/>
		<polygon fill-rule="evenodd" clip-rule="evenodd" fill="none" stroke="#036564" stroke-miterlimit="10" points="462.233,81.623 
			466.169,81.621 466.168,81.222 459.879,77.684 455.944,77.684 462.233,81.222 		"/>
	</g>
	<g>
		<polygon fill-rule="evenodd" clip-rule="evenodd" fill="none" stroke="#036564" stroke-miterlimit="10" points="470.086,81.623 
			466.148,81.623 466.148,82.038 459.861,85.576 463.797,85.576 470.086,82.041 		"/>
		<polygon fill-rule="evenodd" clip-rule="evenodd" fill="none" stroke="#036564" stroke-miterlimit="10" points="466.148,81.623 
			470.086,81.623 470.086,81.224 463.798,77.686 459.86,77.686 466.148,81.224 		"/>
	</g>
	<g>
		<polygon fill-rule="evenodd" clip-rule="evenodd" fill="none" stroke="#036564" stroke-miterlimit="10" points="462.233,81.623 
			458.296,81.621 458.296,82.038 452.007,85.576 455.945,85.577 462.232,82.037 		"/>
		<polygon fill-rule="evenodd" clip-rule="evenodd" fill="none" stroke="#036564" stroke-miterlimit="10" points="458.296,81.621 
			462.233,81.623 462.233,81.222 455.944,77.684 452.007,77.684 458.296,81.22 		"/>
	</g>
	
		<polyline fill-rule="evenodd" clip-rule="evenodd" fill="none" stroke="#036564" stroke-width="2" stroke-linecap="round" stroke-miterlimit="10" points="
		470.086,81.623 552.039,81.624 559.209,81.624 	"/>
	<g>
		<polygon fill-rule="evenodd" clip-rule="evenodd" fill="none" stroke="#036564" stroke-miterlimit="10" points="564.313,81.625 
			560.375,81.624 560.376,82.041 554.089,85.578 558.024,85.578 564.312,82.04 		"/>
		<polygon fill-rule="evenodd" clip-rule="evenodd" fill="none" stroke="#036564" stroke-miterlimit="10" points="560.375,81.624 
			564.313,81.625 564.313,81.227 558.022,77.686 554.087,77.684 560.375,81.226 		"/>
	</g>
	<g>
		<g>
			<path fill="#FFFFFF" d="M500.104,71.083h-7.388l-5.599-8.78h-0.062v8.78h-5.933V48.257h8.868c2.383,0,4.299,0.586,5.753,1.756
				c1.453,1.17,2.179,2.926,2.179,5.267c0,1.635-0.438,3.046-1.316,4.238c-0.878,1.191-2.104,1.927-3.678,2.21L500.104,71.083z
				 M487.056,58.489h0.576c0.544,0,1.054-0.035,1.528-0.106c0.473-0.069,0.908-0.207,1.301-0.409
				c0.395-0.202,0.706-0.494,0.939-0.878c0.23-0.383,0.348-0.868,0.348-1.452c0-0.586-0.117-1.069-0.348-1.454
				c-0.233-0.383-0.545-0.676-0.939-0.878c-0.393-0.202-0.828-0.337-1.301-0.409c-0.475-0.07-0.984-0.106-1.528-0.106h-0.576V58.489
				z"/>
		</g>
		<g>
			<path fill="#FFFFFF" d="M510.465,48.257h5.843l4.631,12.2l4.903-12.2h5.904l3.451,22.825h-5.933l-1.666-13.138h-0.062
				l-5.479,13.138h-2.36l-5.237-13.138h-0.062l-1.905,13.138h-5.903L510.465,48.257z"/>
		</g>
	</g>
	<circle fill-rule="evenodd" clip-rule="evenodd" fill="#036564" cx="467.886" cy="59.67" r="3.917"/>
	<circle fill-rule="evenodd" clip-rule="evenodd" fill="#036564" cx="547.601" cy="59.67" r="3.917"/>
	<circle fill-rule="evenodd" clip-rule="evenodd" fill="#221E1E" cx="1682.195" cy="867.532" r="91.533"/>
	<path fill-rule="evenodd" clip-rule="evenodd" fill="#036564" d="M1743.909,822.066c9.271,12.598,14.749,28.159,14.749,45.001
		c0,41.973-34.025,75.998-75.998,75.998s-75.998-34.025-75.998-75.998c0-16.842,5.479-32.404,14.751-45.003"/>
	<text transform="matrix(1 0 0 1 1640.7959 859.8564)"><tspan x="0" y="0" fill="#FFFFFF" font-family="'Exo-Bold'" font-size="20">HTML5 &amp;</tspan><tspan x="18.06" y="30" fill="#FFFFFF" font-family="'Exo-Bold'" font-size="20">CSS3</tspan></text>
	<circle fill-rule="evenodd" clip-rule="evenodd" fill="#221E1E" cx="1962.195" cy="888.532" r="91.533"/>
	<path fill-rule="evenodd" clip-rule="evenodd" fill="#036564" d="M2034.091,862.058c2.955,8.113,4.567,16.873,4.567,26.01
		c0,41.973-34.025,75.998-75.998,75.998s-75.998-34.025-75.998-75.998c0-9.124,1.607-17.873,4.556-25.979"/>
	<circle fill-rule="evenodd" clip-rule="evenodd" fill="#221E1E" cx="1654.195" cy="1087.532" r="91.533"/>
	<path fill-rule="evenodd" clip-rule="evenodd" fill="#036564" d="M1726.091,1061.058c2.955,8.113,4.567,16.873,4.567,26.01
		c0,41.973-34.025,75.998-75.998,75.998s-75.998-34.025-75.998-75.998c0-9.124,1.607-17.873,4.556-25.979"/>
	<circle fill-rule="evenodd" clip-rule="evenodd" fill="#221E1E" cx="2074.195" cy="1122.532" r="91.533"/>
	<path fill-rule="evenodd" clip-rule="evenodd" fill="#036564" d="M2145.334,1150.068c-11.148,28.115-38.59,47.997-70.674,47.997
		s-59.523-19.882-70.673-47.997"/>
	<text transform="matrix(1 0 0 1 1603.1162 1100.3223)" fill="#FFFFFF" font-family="'Exo-Bold'" font-size="20">jQuery &amp; JS</text>
	<text transform="matrix(1 0 0 1 2054.6152 1128.3223)" fill="#FFFFFF" font-family="'Exo-Bold'" font-size="20">Java</text>
	<text transform="matrix(1 0 0 1 1909.1006 882.5654)"><tspan x="0" y="0" fill="#FFFFFF" font-family="'Exo-Bold'" font-size="20">Photoshop &amp;</tspan><tspan x="11.521" y="30" fill="#FFFFFF" font-family="'Exo-Bold'" font-size="20">Illustrator</tspan></text>
	<text transform="matrix(1 0 0 1 655.0405 608.6357)" fill="#221E1E" font-family="'Exo-Bold'" font-size="10">HTML5 &amp; CSS3</text>
	<text transform="matrix(1 0 0 1 776.7969 658.5654)" fill="#221E1E" font-family="'Exo-Bold'" font-size="16">jQuery &amp; JS</text>
	<text transform="matrix(1 0 0 1 653.9961 703.4014)" fill="#221E1E" font-family="'Exo-Bold'" font-size="16">Java</text>
	<text transform="matrix(1 0 0 1 908.7441 497.4746)"><tspan x="0" y="0" fill="#221E1E" font-family="'Exo-Bold'" font-size="16">Photoshop &amp;</tspan><tspan x="9.217" y="16" fill="#221E1E" font-family="'Exo-Bold'" font-size="16">Illustrator</tspan></text>
	<text transform="matrix(1 0 0 1 1386.625 790.6445)" fill="#221E1E" font-family="'Exo-Bold'" font-size="36">Skills</text>
	<text transform="matrix(1 0 0 1 617.353 503.0674)" fill="#221E1E" font-family="'Exo-Bold'" font-size="30">Skills</text>
	<line fill="none" stroke="#1A1A1A" stroke-width="2" x1="1300.775" y1="940.637" x2="2321.66" y2="1122.067"/>
	<line fill="none" stroke="#CCCCCC" stroke-width="2" x1="1300.775" y1="1961.139" x2="2320.66" y2="1791.647"/>
	<path fill-rule="evenodd" clip-rule="evenodd" fill="#221E1E" d="M1339.66,1714.86c0,3.457-1.5,7.207-4.837,7.207h-35.163v-40
		h35.163c4.087,0,5.837,1.5,4.837,5.04V1714.86z"/>
	<g>
		<path fill-rule="evenodd" clip-rule="evenodd" fill="#FFFFFF" d="M1330.66,1693.089c0,1.093-0.886,1.979-1.979,1.979h-20.043
			c-1.093,0-1.979-0.886-1.979-1.979v-0.043c0-1.093,0.886-1.979,1.979-1.979h20.043c1.093,0,1.979,0.886,1.979,1.979V1693.089z"/>
		<path fill-rule="evenodd" clip-rule="evenodd" fill="#FFFFFF" d="M1330.66,1702.089c0,1.093-0.886,1.979-1.979,1.979h-20.043
			c-1.093,0-1.979-0.886-1.979-1.979v-0.043c0-1.093,0.886-1.979,1.979-1.979h20.043c1.093,0,1.979,0.886,1.979,1.979V1702.089z"/>
		<path fill-rule="evenodd" clip-rule="evenodd" fill="#FFFFFF" d="M1330.66,1711.089c0,1.093-0.886,1.979-1.979,1.979h-20.043
			c-1.093,0-1.979-0.886-1.979-1.979v-0.043c0-1.093,0.886-1.979,1.979-1.979h20.043c1.093,0,1.979,0.886,1.979,1.979V1711.089z"/>
	</g>
	<text transform="matrix(1 0 0 1 1386.6538 1483.6445)" fill="#221E1E" font-family="'Exo-Bold'" font-size="36">When did it start?</text>
	<g>
		<text transform="matrix(1 0 0 1 631.9917 1121.3926)" fill="#FFFFFF" font-family="'Exo-Bold'" font-size="22">When did it start?</text>
	</g>
	<path fill="none" stroke="#CCCCCC" stroke-width="2" d="M2323.66,2139.647"/>
	<path fill="none" stroke="#CCCCCC" stroke-width="2" d="M1303.775,2309.139"/>
	<path fill="none" stroke="#B3B3B3" stroke-width="2" d="M2324.66,2534.067"/>
	<path fill="none" stroke="#B3B3B3" stroke-width="2" d="M1303.775,2352.637"/>
	<path fill="none" stroke="#CCCCCC" stroke-width="2" d="M2323.66,2499.647"/>
	<path fill="none" stroke="#CCCCCC" stroke-width="2" d="M1303.775,2669.139"/>
	<path opacity="0.5" fill-rule="evenodd" clip-rule="evenodd" fill="#221E1E" d="M1342.66,2422.86c0,3.457-1.5,7.207-4.837,7.207
		h-35.163v-40h35.163c4.087,0,5.837,1.5,4.837,5.04V2422.86z"/>
	<g>
		<path fill-rule="evenodd" clip-rule="evenodd" fill="#FFFFFF" d="M1333.66,2401.089c0,1.093-0.886,1.979-1.979,1.979h-20.043
			c-1.093,0-1.979-0.886-1.979-1.979v-0.043c0-1.093,0.886-1.979,1.979-1.979h20.043c1.093,0,1.979,0.886,1.979,1.979V2401.089z"/>
		<path fill-rule="evenodd" clip-rule="evenodd" fill="#FFFFFF" d="M1333.66,2410.089c0,1.093-0.886,1.979-1.979,1.979h-20.043
			c-1.093,0-1.979-0.886-1.979-1.979v-0.043c0-1.093,0.886-1.979,1.979-1.979h20.043c1.093,0,1.979,0.886,1.979,1.979V2410.089z"/>
		<path fill-rule="evenodd" clip-rule="evenodd" fill="#FFFFFF" d="M1333.66,2419.089c0,1.093-0.886,1.979-1.979,1.979h-20.043
			c-1.093,0-1.979-0.886-1.979-1.979v-0.043c0-1.093,0.886-1.979,1.979-1.979h20.043c1.093,0,1.979,0.886,1.979,1.979V2419.089z"/>
	</g>
	<line fill="none" stroke="#CCCCCC" stroke-width="2" x1="1300.775" y1="3030.139" x2="2320.66" y2="2860.647"/>
	<line fill="none" stroke="#CCCCCC" stroke-width="2" x1="1300.775" y1="3390.139" x2="2320.66" y2="3220.647"/>
	<line fill="none" stroke="#B3B3B3" stroke-width="2" x1="1300.775" y1="3073.637" x2="2321.66" y2="3255.067"/>
	<line fill="none" stroke="#CCCCCC" stroke-width="2" x1="1303.775" y1="3690.139" x2="2323.66" y2="3520.647"/>
	<path fill-rule="evenodd" clip-rule="evenodd" fill="#221E1E" d="M1339.66,3143.86c0,3.457-1.5,7.207-4.837,7.207h-35.163v-40
		h35.163c4.087,0,5.837,1.5,4.837,5.04V3143.86z"/>
	<g>
		<path fill-rule="evenodd" clip-rule="evenodd" fill="#FFFFFF" d="M1330.66,3122.089c0,1.093-0.886,1.979-1.979,1.979h-20.043
			c-1.093,0-1.979-0.886-1.979-1.979v-0.043c0-1.093,0.886-1.979,1.979-1.979h20.043c1.093,0,1.979,0.886,1.979,1.979V3122.089z"/>
		<path fill-rule="evenodd" clip-rule="evenodd" fill="#FFFFFF" d="M1330.66,3131.089c0,1.093-0.886,1.979-1.979,1.979h-20.043
			c-1.093,0-1.979-0.886-1.979-1.979v-0.043c0-1.093,0.886-1.979,1.979-1.979h20.043c1.093,0,1.979,0.886,1.979,1.979V3131.089z"/>
		<path fill-rule="evenodd" clip-rule="evenodd" fill="#FFFFFF" d="M1330.66,3140.089c0,1.093-0.886,1.979-1.979,1.979h-20.043
			c-1.093,0-1.979-0.886-1.979-1.979v-0.043c0-1.093,0.886-1.979,1.979-1.979h20.043c1.093,0,1.979,0.886,1.979,1.979V3140.089z"/>
	</g>
	<rect x="1629.66" y="2926.067" fill-rule="evenodd" clip-rule="evenodd" fill="#221E1E" width="387" height="334"/>
	<text transform="matrix(1 0 0 1 1676.6602 3056.0674)" fill="#FFFFFF" font-family="'Exo-Bold'" font-size="18">e-mail:</text>
	<text transform="matrix(1 0 0 1 1676.6602 3007.0674)" fill="#FFFFFF" font-family="'Exo-Bold'" font-size="18">Name:</text>
	<text transform="matrix(1 0 0 1 1676.6602 3107.0674)" fill="#FFFFFF" font-family="'Exo-Bold'" font-size="18">Message:</text>
	<rect x="1769.66" y="2990.067" fill-rule="evenodd" clip-rule="evenodd" fill="#FFFFFF" width="192" height="24"/>
	<rect x="1769.66" y="3039.067" fill-rule="evenodd" clip-rule="evenodd" fill="#FFFFFF" width="192" height="24"/>
	<rect x="1769.66" y="3091.067" fill-rule="evenodd" clip-rule="evenodd" fill="#FFFFFF" width="192" height="99"/>
	<rect x="2062.66" y="2981.067" fill-rule="evenodd" clip-rule="evenodd" fill="#036564" width="224" height="209"/>
	<text transform="matrix(1 0 0 1 2162.9355 3015.3936)" fill="#FFFFFF" font-family="'Exo-Bold'" font-size="24">or</text>
	<g>
		<rect x="2101.66" y="3094.067" fill-rule="evenodd" clip-rule="evenodd" fill="#FFFFFF" width="30" height="30"/>
		<g>
			<path fill="#221E1E" d="M2119.943,3101.97v2.448h-1.331c-0.396,0-0.647,0.106-0.773,0.323c-0.091,0.145-0.126,0.396-0.126,0.738
				v1.115h2.267l-0.27,2.465h-1.997v7.105h-2.933v-7.105h-1.439v-2.465h1.439v-1.475c0-1.512,0.522-2.483,1.548-2.898
				c0.504-0.195,0.935-0.252,1.385-0.252H2119.943z"/>
		</g>
	</g>
	<g>
		<rect x="2101.66" y="3138.067" fill-rule="evenodd" clip-rule="evenodd" fill="#FFFFFF" width="30" height="30"/>
		<path fill-rule="evenodd" clip-rule="evenodd" fill="#221E1E" d="M2114.809,3159.729c-0.66,0-2.041-0.057-2.087-0.062
			c-1.333-0.135-2.582-0.539-3.75-1.19c-0.114-0.063-0.255-0.105-0.336-0.248c0.847,0.062,1.654,0.002,2.465-0.195
			c0.806-0.197,1.483-0.627,2.175-1.041c0.082-0.05,0.247-0.092,0.179-0.232c-0.069-0.145-0.152,0.063-0.243,0.03
			c-0.051-0.019-0.108-0.019-0.162-0.028c-1.162-0.182-1.965-0.85-2.506-1.864c-0.173-0.322-0.126-0.378,0.265-0.37
			c0.313,0.006,0.626,0.013,1.003-0.107c-0.481-0.145-0.897-0.289-1.224-0.549c-0.737-0.591-1.237-1.346-1.374-2.311
			c-0.047-0.334,0.02-0.41,0.341-0.314c0.346,0.104,0.669,0.318,1.085,0.191c-0.284-0.188-0.501-0.43-0.694-0.678
			c-0.745-0.954-0.911-2.029-0.53-3.172c0.179-0.536,0.141-0.666,0.656-0.15c0.64,0.643,1.293,1.258,2.088,1.713
			c1.271,0.732,2.613,1.215,4.083,1.344c0.344,0.027,0.389-0.078,0.34-0.366c-0.274-1.591,1.059-3.431,2.767-3.645
			c0.122-0.015,0.724-0.146,1.246-0.04c0.553,0.115,1.049,0.377,1.477,0.756c0.194,0.174,0.395,0.271,0.675,0.168
			c0.495-0.18,1.029-0.257,1.477-0.567c0.073-0.05,0.148-0.128,0.274-0.097c-0.036,0.115-0.07,0.227-0.104,0.338
			c-0.12,0.193-0.24,0.391-0.359,0.585c-0.32,0.204-0.478,0.567-0.789,0.786c0.398-0.001,0.771-0.101,1.146-0.194
			c0.021,0,0.043-0.001,0.065-0.001c0.143,0.041,0.342,0.053,0.152,0.277c-0.359,0.35-0.708,0.709-1.084,1.041
			c-0.146,0.129-0.218,0.241-0.215,0.44c0.02,1.005-0.129,1.987-0.424,2.95c-0.514,1.668-1.404,3.105-2.656,4.32
			c-0.088,0.078-0.175,0.158-0.262,0.236c-0.819,0.691-1.732,1.227-2.719,1.639c-0.143,0.074-0.924,0.273-1.017,0.326
			C2116.231,3159.448,2115.338,3159.688,2114.809,3159.729z"/>
	</g>
	<text transform="matrix(1 0 0 1 2101.6602 3063.0674)" fill="#FFFFFF" font-family="'Exo-Bold'" font-size="24">Find me here...</text>
	<line fill="none" stroke="#B3B3B3" stroke-width="2" x1="1300.775" y1="1644.637" x2="2321.66" y2="1826.067"/>
	<rect x="1358.66" y="2981.067" fill-rule="evenodd" clip-rule="evenodd" fill="#036564" width="224" height="209"/>
	<text transform="matrix(1 0 0 1 1458.936 3015.3936)" fill="#FFFFFF" font-family="'Exo-Bold'" font-size="24">or</text>
	<text transform="matrix(1 0 0 1 1412.6602 3063.0674)" fill="#FFFFFF" font-family="'Exo-Bold'" font-size="24">Mail me...</text>
	<text transform="matrix(1 0 0 1 1402.3335 3116.0664)"><tspan x="0" y="0" fill="#FFFFFF" font-family="'Exo-Bold'" font-size="18">ruttenmarijn1991</tspan><tspan x="18.341" y="30" fill="#FFFFFF" font-family="'Exo-Bold'" font-size="18">@gmail.com</tspan></text>
	<rect x="1694.66" y="1531.067" fill-rule="evenodd" clip-rule="evenodd" fill="#036564" width="588" height="431"/>
	<rect x="1727.041" y="1554.353" fill-rule="evenodd" clip-rule="evenodd" fill="none" width="528.625" height="408"/>
	<text transform="matrix(1 0 0 1 1727.0405 1568.4824)"><tspan x="0" y="0" fill="#FFFFFF" font-family="'Exo-Bold'" font-size="18">Lorem ipsum dolor sit amet, consectetur adipiscing elit. Pellen</tspan><tspan x="505.09" y="0" fill="#FFFFFF" font-family="'Exo-Bold'" font-size="18">-</tspan><tspan x="0" y="30" fill="#FFFFFF" font-family="'Exo-Bold'" font-size="18">tesque egestas lacus non nisl dapibus, quis tristique nisl ornare. </tspan><tspan x="0" y="60" fill="#FFFFFF" font-family="'Exo-Bold'" font-size="18">Pellentesque non pellentesque turpis. Vestibulum ante ipsum </tspan><tspan x="0" y="90" fill="#FFFFFF" font-family="'Exo-Bold'" font-size="18">primis in faucibus orci luctus et ultrices posuere cubilia Curae; </tspan><tspan x="0" y="120" fill="#FFFFFF" font-family="'Exo-Bold'" font-size="18">Vivamus sit amet nibh tortor. Praesent vestibulum dui non felis </tspan><tspan x="0" y="150" fill="#FFFFFF" font-family="'Exo-Bold'" font-size="18">volutpat luctus. Quisque sit amet luctus mi, at placerat nisl. </tspan><tspan x="0" y="210" fill="#FFFFFF" font-family="'Exo-Bold'" font-size="18">In placerat nunc eget massa sollicitudin gravida. Cras euismod </tspan><tspan x="0" y="240" fill="#FFFFFF" font-family="'Exo-Bold'" font-size="18">nunc a massa iaculis, sed euismod nisi pretium. Duis id porta </tspan><tspan x="0" y="270" fill="#FFFFFF" font-family="'Exo-Bold'" font-size="18">purus. Aliquam nec ligula rutrum, vestibulum arcu eu, molestie </tspan><tspan x="0" y="300" fill="#FFFFFF" font-family="'Exo-Bold'" font-size="18">justo. Sed ullamcorper libero ut turpis hendrerit mattis. Sed tris</tspan><tspan x="515.477" y="300" fill="#FFFFFF" font-family="'Exo-Bold'" font-size="18">-</tspan><tspan x="0" y="330" fill="#FFFFFF" font-family="'Exo-Bold'" font-size="18">tique eget leo quis lacinia. Pellentesque varius venenatis nisi, a </tspan><tspan x="0" y="360" fill="#FFFFFF" font-family="'Exo-Bold'" font-size="18">volutpat ligula blandit at.</tspan></text>
	<text transform="matrix(1 0 0 1 2142.6602 3114.2783)" fill="#FFFFFF" font-family="'Exo-Bold'" font-size="18">marijn.rutten</text>
	<text transform="matrix(1 0 0 1 2142.6602 3158.2783)" fill="#FFFFFF" font-family="'Exo-Bold'" font-size="18">@RuttenMarijn</text>
	<text transform="matrix(1 0 0 1 858.9365 2255.7275)" fill="#FFFFFF" font-family="'Exo-Bold'" font-size="20">or</text>
	<g>
		<rect x="625.66" y="2321.067" fill-rule="evenodd" clip-rule="evenodd" fill="#FFFFFF" width="23" height="23"/>
		<g>
			<path fill="#221E1E" d="M640.177,2326.626v1.877h-1.021c-0.303,0-0.496,0.082-0.593,0.248c-0.07,0.11-0.097,0.304-0.097,0.565
				v0.855h1.738l-0.207,1.89h-1.531v5.447h-2.249v-5.447h-1.104v-1.89h1.104v-1.131c0-1.159,0.401-1.903,1.187-2.222
				c0.386-0.15,0.716-0.193,1.062-0.193H640.177z"/>
		</g>
	</g>
	<g>
		<rect x="625.66" y="2364.067" fill-rule="evenodd" clip-rule="evenodd" fill="#FFFFFF" width="23" height="23"/>
		<path fill-rule="evenodd" clip-rule="evenodd" fill="#221E1E" d="M635.751,2380.668c-0.506,0-1.566-0.044-1.602-0.047
			c-1.023-0.104-1.982-0.414-2.878-0.914c-0.087-0.049-0.195-0.081-0.258-0.19c0.65,0.047,1.27,0.002,1.892-0.149
			c0.618-0.151,1.138-0.481,1.669-0.8c0.063-0.037,0.19-0.07,0.137-0.178c-0.053-0.111-0.117,0.048-0.187,0.023
			c-0.039-0.015-0.083-0.015-0.125-0.021c-0.892-0.141-1.508-0.652-1.923-1.432c-0.133-0.247-0.097-0.29,0.203-0.283
			c0.24,0.004,0.48,0.01,0.77-0.083c-0.37-0.11-0.689-0.222-0.939-0.421c-0.566-0.454-0.95-1.033-1.054-1.773
			c-0.036-0.257,0.015-0.314,0.261-0.242c0.266,0.08,0.514,0.245,0.833,0.147c-0.218-0.144-0.385-0.329-0.533-0.521
			c-0.572-0.732-0.699-1.557-0.407-2.434c0.137-0.412,0.108-0.512,0.503-0.115c0.491,0.492,0.993,0.965,1.603,1.314
			c0.976,0.562,2.006,0.932,3.134,1.031c0.264,0.021,0.298-0.061,0.261-0.281c-0.21-1.221,0.813-2.633,2.124-2.797
			c0.094-0.012,0.555-0.112,0.956-0.031c0.424,0.088,0.805,0.289,1.133,0.58c0.149,0.134,0.303,0.209,0.518,0.129
			c0.38-0.138,0.79-0.197,1.133-0.436c0.056-0.038,0.114-0.098,0.21-0.074c-0.027,0.089-0.054,0.174-0.079,0.26
			c-0.092,0.148-0.185,0.3-0.276,0.449c-0.246,0.156-0.367,0.436-0.606,0.604c0.306-0.002,0.592-0.078,0.879-0.15
			c0.016,0,0.033,0,0.05,0c0.109,0.031,0.262,0.04,0.117,0.213c-0.276,0.268-0.543,0.544-0.832,0.799
			c-0.113,0.099-0.167,0.186-0.165,0.338c0.015,0.771-0.099,1.525-0.325,2.265c-0.395,1.28-1.078,2.384-2.039,3.315
			c-0.067,0.061-0.134,0.121-0.201,0.182c-0.629,0.53-1.33,0.941-2.086,1.258c-0.109,0.057-0.709,0.209-0.78,0.25
			C636.844,2380.452,636.158,2380.637,635.751,2380.668z"/>
	</g>
	<text transform="matrix(1 0 0 1 744.9893 2301.4014)" fill="#FFFFFF" font-family="'Exo-Bold'" font-size="20">Find me here...</text>
	<text transform="matrix(1 0 0 1 672.6602 2337.5088)" fill="#FFFFFF" font-family="'Exo-Bold'" font-size="16">marijn.rutten</text>
	<text transform="matrix(1 0 0 1 669.6602 2380.668)" fill="#FFFFFF" font-family="'Exo-Bold'" font-size="16">@RuttenMarijn</text>
	
		<image overflow="visible" width="956" height="320" xlink:href="../../afbeeldingen/images/adresMaps.jpg"  transform="matrix(1.0654 0 0 1.0654 1304.1299 3317.0322)">
	</image>
	<text transform="matrix(1 0 0 1 1340.0313 2156.3115)" fill="#FFFFFF" font-family="'Exo-Bold'" font-size="36">My work</text>
	<polygon fill="#036564" points="594.704,1515.372 594.779,1616.736 894.12,1515.131 	"/>
	<text transform="matrix(0.9563 0 0 1 612.5259 1565.9336)" fill="#FFFFFF" font-family="'Exo-Bold'" font-size="22">My work</text>
	<polygon fill="#036564" points="2325.145,2675.507 2324.951,2424.554 1962.452,2714.865 2276.301,2714.624 	"/>
	<polygon fill="#036564" points="2324.705,2104.587 2250.889,2104.644 1488.478,2715.229 1802.325,2714.988 2324.853,2296.517 	"/>
	<polygon fill="#036564" points="1776.913,2105.008 1303.995,2483.75 1303.848,2680.171 1298.167,2677.663 2013.062,2105.131 	"/>
	
		<line fill="none" stroke="#221E1E" stroke-width="2" stroke-miterlimit="10" x1="1634.66" y1="356.067" x2="1988.66" y2="356.067"/>
	<text transform="matrix(1 0 0 1 688.8916 291.3311)" fill="#221E1E" font-family="'Exo-Black'" font-size="22">Webdesign</text>
	<image overflow="visible" width="200" height="200" xlink:href="me.png"  transform="matrix(1 0 0 1 1422.6602 1531.0674)">
	</image>
	<g>
		<g>
			
				<line fill="none" stroke="#00FF8B" stroke-width="2" stroke-linecap="round" stroke-linejoin="round" x1="1141.66" y1="259.067" x2="1141.66" y2="259.067"/>
			
				<line fill="none" stroke="#00FF8B" stroke-width="2" stroke-linecap="round" stroke-linejoin="round" stroke-dasharray="0,5" x1="1146.66" y1="259.067" x2="1228.66" y2="259.067"/>
			
				<line fill="none" stroke="#00FF8B" stroke-width="2" stroke-linecap="round" stroke-linejoin="round" x1="1231.66" y1="259.067" x2="1231.66" y2="259.067"/>
		</g>
	</g>
	<g>
		<g>
			
				<line fill="none" stroke="#00FF8B" stroke-width="2" stroke-linecap="round" stroke-linejoin="round" x1="1139.66" y1="289.067" x2="1139.66" y2="289.067"/>
			
				<line fill="none" stroke="#00FF8B" stroke-width="2" stroke-linecap="round" stroke-linejoin="round" stroke-dasharray="0,5" x1="1144.66" y1="289.067" x2="1226.66" y2="289.067"/>
			
				<line fill="none" stroke="#00FF8B" stroke-width="2" stroke-linecap="round" stroke-linejoin="round" x1="1229.66" y1="289.067" x2="1229.66" y2="289.067"/>
		</g>
	</g>
	<g>
		<g>
			
				<line fill="none" stroke="#00FF8B" stroke-width="2" stroke-linecap="round" stroke-linejoin="round" x1="1139.66" y1="318.067" x2="1139.66" y2="318.067"/>
			
				<line fill="none" stroke="#00FF8B" stroke-width="2" stroke-linecap="round" stroke-linejoin="round" stroke-dasharray="0,5" x1="1144.66" y1="318.067" x2="1226.66" y2="318.067"/>
			
				<line fill="none" stroke="#00FF8B" stroke-width="2" stroke-linecap="round" stroke-linejoin="round" x1="1229.66" y1="318.067" x2="1229.66" y2="318.067"/>
		</g>
	</g>
	<g>
		<g>
			
				<line fill="none" stroke="#00FF8B" stroke-width="2" stroke-linecap="round" stroke-linejoin="round" x1="1139.66" y1="347.067" x2="1139.66" y2="347.067"/>
			
				<line fill="none" stroke="#00FF8B" stroke-width="2" stroke-linecap="round" stroke-linejoin="round" stroke-dasharray="0,5" x1="1144.66" y1="347.067" x2="1226.66" y2="347.067"/>
			
				<line fill="none" stroke="#00FF8B" stroke-width="2" stroke-linecap="round" stroke-linejoin="round" x1="1229.66" y1="347.067" x2="1229.66" y2="347.067"/>
		</g>
	</g>
	<g>
		<g>
			
				<line fill="none" stroke="#00FF8B" stroke-width="2" stroke-linecap="round" stroke-linejoin="round" x1="1139.66" y1="379.067" x2="1139.66" y2="379.067"/>
			
				<line fill="none" stroke="#00FF8B" stroke-width="2" stroke-linecap="round" stroke-linejoin="round" stroke-dasharray="0,5" x1="1144.66" y1="379.067" x2="1226.66" y2="379.067"/>
			
				<line fill="none" stroke="#00FF8B" stroke-width="2" stroke-linecap="round" stroke-linejoin="round" x1="1229.66" y1="379.067" x2="1229.66" y2="379.067"/>
		</g>
	</g>
	<rect x="2456.66" y="189.067" fill-rule="evenodd" clip-rule="evenodd" fill="#FFFFFF" width="26" height="26"/>
	<line opacity="0.2" fill="none" stroke="#00FF8B" stroke-miterlimit="10" x1="2470.16" y1="200.067" x2="2470.16" y2="203.067"/>
	<line opacity="0.2" fill="none" stroke="#00FF8B" stroke-miterlimit="10" x1="2470.66" y1="200.567" x2="2467.66" y2="200.567"/>
	<g>
		
			<line fill="none" stroke="#FFFFFF" stroke-width="5" stroke-miterlimit="10" x1="745.16" y1="1586.067" x2="745.16" y2="1617.067"/>
		
			<line fill="none" stroke="#FFFFFF" stroke-width="5" stroke-miterlimit="10" x1="760.66" y1="1601.567" x2="729.66" y2="1601.567"/>
	</g>
	<line fill="none" stroke="#221E1E" stroke-width="2" stroke-miterlimit="10" x1="744.66" y1="666.067" x2="874.66" y2="666.067"/>
	<line fill="none" stroke="#221E1E" stroke-width="2" stroke-miterlimit="10" x1="614.66" y1="708.067" x2="744.66" y2="708.067"/>
	<g>
		<g>
			<g>
				<polygon fill-rule="evenodd" clip-rule="evenodd" fill="none" stroke="#221E1E" stroke-miterlimit="10" points="331.65,819.647 
					331.651,824.067 332.117,824.069 336.089,831.13 336.092,826.71 332.118,819.647 				"/>
				<polygon fill-rule="evenodd" clip-rule="evenodd" fill="none" stroke="#221E1E" stroke-miterlimit="10" points="
					331.651,824.067 331.65,819.647 331.201,819.647 327.228,826.712 327.228,831.132 331.201,824.067 				"/>
			</g>
		</g>
		<g>
			<g>
				<polygon fill-rule="evenodd" clip-rule="evenodd" fill="none" stroke="#221E1E" stroke-miterlimit="10" points="
					331.651,815.247 331.651,819.671 332.118,819.671 336.091,826.731 336.091,822.312 332.121,815.247 				"/>
				<polygon fill-rule="evenodd" clip-rule="evenodd" fill="none" stroke="#221E1E" stroke-miterlimit="10" points="
					331.651,819.671 331.651,815.247 331.204,815.247 327.229,822.312 327.229,826.733 331.204,819.671 				"/>
			</g>
		</g>
		<g>
			<g>
				<polygon fill-rule="evenodd" clip-rule="evenodd" fill="none" stroke="#221E1E" stroke-miterlimit="10" points="
					331.651,824.067 331.65,828.491 332.118,828.489 336.091,835.554 336.092,831.13 332.117,824.069 				"/>
				<polygon fill-rule="evenodd" clip-rule="evenodd" fill="none" stroke="#221E1E" stroke-miterlimit="10" points="331.65,828.491 
					331.651,824.067 331.201,824.067 327.228,831.132 327.228,835.554 331.199,828.491 				"/>
			</g>
		</g>
	</g>
	<g>
		<g>
			<polygon fill-rule="evenodd" clip-rule="evenodd" fill="none" stroke="#221E1E" stroke-miterlimit="10" points="331.654,495.081 
				331.652,499.505 332.121,499.504 336.093,506.565 336.093,502.146 332.119,495.083 			"/>
			<polygon fill-rule="evenodd" clip-rule="evenodd" fill="none" stroke="#221E1E" stroke-miterlimit="10" points="331.652,499.505 
				331.654,495.081 331.206,495.081 327.228,502.147 327.227,506.567 331.205,499.505 			"/>
		</g>
	</g>
	<text transform="matrix(1 0 0 1 363.541 584.9697)"><tspan x="0" y="0" fill="#221E1E" font-family="'Exo-Bold'" font-size="16">HTML5 &amp;</tspan><tspan x="14.447" y="16" fill="#221E1E" font-family="'Exo-Bold'" font-size="16">CSS3</tspan></text>
	<text transform="matrix(1 0 0 1 363.7969 682.5654)" fill="#221E1E" font-family="'Exo-Bold'" font-size="16">jQuery &amp; JS</text>
	<text transform="matrix(1 0 0 1 240.9961 727.4014)" fill="#221E1E" font-family="'Exo-Bold'" font-size="16">Java</text>
	<text transform="matrix(1 0 0 1 203.7441 591.4746)"><tspan x="0" y="0" fill="#221E1E" font-family="'Exo-Bold'" font-size="16">Photoshop &amp;</tspan><tspan x="9.217" y="16" fill="#221E1E" font-family="'Exo-Bold'" font-size="16">Illustrator</tspan></text>
	<line fill="none" stroke="#221E1E" stroke-width="2" stroke-miterlimit="10" x1="331.66" y1="500.067" x2="331.66" y2="829.067"/>
	<text transform="matrix(1 0 0 1 339.0273 835.5537)" fill="#221E1E" font-family="'Exo-Bold'" font-size="20">0</text>
	<line fill="none" stroke="#221E1E" stroke-width="2" stroke-miterlimit="10" x1="331.66" y1="690.067" x2="461.66" y2="690.067"/>
	<line fill="none" stroke="#221E1E" stroke-width="2" stroke-miterlimit="10" x1="201.66" y1="612.067" x2="331.66" y2="612.067"/>
	<line fill="none" stroke="#221E1E" stroke-width="2" stroke-miterlimit="10" x1="331.66" y1="606.067" x2="461.66" y2="606.067"/>
	<line fill="none" stroke="#221E1E" stroke-width="2" stroke-miterlimit="10" x1="201.66" y1="732.067" x2="331.66" y2="732.067"/>
	
		<rect x="619.992" y="1133.922" transform="matrix(1 -0.0039 0.0039 1 -5.0236 2.8308)" fill-rule="evenodd" clip-rule="evenodd" fill="none" width="224" height="342.001"/>
	<text transform="matrix(1 0 0 1 619.3701 1143.6973)"><tspan x="0" y="0" font-family="'Exo-Bold'" font-size="13"> </tspan><tspan x="3.25" y="0" fill="#FFFFFF" font-family="'Exo-Bold'" font-size="13">Lorem ipsum dolor sit amet, con</tspan><tspan x="192.645" y="0" fill="#FFFFFF" font-family="'Exo-Bold'" font-size="13">-</tspan><tspan x="0.061" y="15.6" fill="#FFFFFF" font-family="'Exo-Bold'" font-size="13">sectetur adipiscing elit. Pellentesque </tspan><tspan x="0.12" y="31.2" fill="#FFFFFF" font-family="'Exo-Bold'" font-size="13">egestas lacus non nisl dapibus, quis </tspan><tspan x="0.181" y="46.8" fill="#FFFFFF" font-family="'Exo-Bold'" font-size="13">tristique nisl ornare. Pellentesque non </tspan><tspan x="0.241" y="62.399" fill="#FFFFFF" font-family="'Exo-Bold'" font-size="13">pellentesque turpis. Vestibulum ante </tspan><tspan x="0.301" y="78" fill="#FFFFFF" font-family="'Exo-Bold'" font-size="13">ipsum primis in faucibus orci luctus et </tspan><tspan x="0.361" y="93.6" fill="#FFFFFF" font-family="'Exo-Bold'" font-size="13">ultrices posuere cubilia Curae; Viva</tspan><tspan x="205.536" y="93.6" fill="#FFFFFF" font-family="'Exo-Bold'" font-size="13">-</tspan><tspan x="0.421" y="109.2" fill="#FFFFFF" font-family="'Exo-Bold'" font-size="13">mus sit amet nibh tortor. Praesent </tspan><tspan x="0.481" y="124.8" fill="#FFFFFF" font-family="'Exo-Bold'" font-size="13">vestibulum dui non felis volutpat </tspan><tspan x="0.541" y="140.399" fill="#FFFFFF" font-family="'Exo-Bold'" font-size="13">luctus. Quisque sit amet luctus mi, at </tspan><tspan x="0.601" y="156" fill="#FFFFFF" font-family="'Exo-Bold'" font-size="13">placerat nisl. </tspan><tspan x="0.722" y="187.2" fill="#FFFFFF" font-family="'Exo-Bold'" font-size="13">In placerat nunc eget massa sollicitu</tspan><tspan x="213.997" y="187.2" fill="#FFFFFF" font-family="'Exo-Bold'" font-size="13">-</tspan><tspan x="0.781" y="202.8" fill="#FFFFFF" font-family="'Exo-Bold'" font-size="13">din gravida. Cras euismod nunc a </tspan><tspan x="0.842" y="218.399" fill="#FFFFFF" font-family="'Exo-Bold'" font-size="13">massa iaculis, sed euismod nisi pre</tspan><tspan x="204.653" y="218.399" fill="#FFFFFF" font-family="'Exo-Bold'" font-size="13">-</tspan><tspan x="0.901" y="234" fill="#FFFFFF" font-family="'Exo-Bold'" font-size="13">tium. Duis id porta purus. Aliquam nec </tspan><tspan x="0.962" y="249.6" fill="#FFFFFF" font-family="'Exo-Bold'" font-size="13">ligula rutrum, vestibulum arcu eu, </tspan><tspan x="1.022" y="265.2" fill="#FFFFFF" font-family="'Exo-Bold'" font-size="13">molestie justo. Sed ullamcorper libero </tspan><tspan x="1.082" y="280.8" fill="#FFFFFF" font-family="'Exo-Bold'" font-size="13">ut turpis hendrerit mattis. Sed tris</tspan><tspan x="200.318" y="280.8" fill="#FFFFFF" font-family="'Exo-Bold'" font-size="13">-</tspan><tspan x="1.142" y="296.399" fill="#FFFFFF" font-family="'Exo-Bold'" font-size="13">tique eget leo quis lacinia. Pellen</tspan><tspan x="191.678" y="296.399" fill="#FFFFFF" font-family="'Exo-Bold'" font-size="13">-</tspan><tspan x="1.202" y="312" fill="#FFFFFF" font-family="'Exo-Bold'" font-size="13">tesque varius venenatis nisi, a volut</tspan><tspan x="210.343" y="312" fill="#FFFFFF" font-family="'Exo-Bold'" font-size="13">-</tspan><tspan x="1.262" y="327.6" fill="#FFFFFF" font-family="'Exo-Bold'" font-size="13">pat ligula blandit at.</tspan></text>
	<rect x="594.66" y="1686.067" opacity="0.5" width="150" height="210"/>
	<rect x="745.66" y="1686.067" opacity="0.5" width="150" height="210"/>
	<g>
		
			<line fill="none" stroke="#FFFFFF" stroke-width="5" stroke-miterlimit="10" x1="670.16" y1="1776.067" x2="670.16" y2="1807.067"/>
		
			<line fill="none" stroke="#FFFFFF" stroke-width="5" stroke-miterlimit="10" x1="685.66" y1="1791.567" x2="654.66" y2="1791.567"/>
	</g>
	<g>
		
			<line fill="none" stroke="#FFFFFF" stroke-width="5" stroke-miterlimit="10" x1="820.16" y1="1776.067" x2="820.16" y2="1807.067"/>
		
			<line fill="none" stroke="#FFFFFF" stroke-width="5" stroke-miterlimit="10" x1="835.66" y1="1791.567" x2="804.66" y2="1791.567"/>
	</g>
	<polygon fill-rule="evenodd" clip-rule="evenodd" fill="#221E1E" points="894.758,2170.734 593.66,2170.734 593.66,1896.396 
		894.758,1821.067 	"/>
	<text transform="matrix(1 0 0 1 622.2275 1978.2119)" fill="#FFFFFF" font-family="'Exo-Bold'" font-size="14.0046">e-mail:</text>
	<text transform="matrix(1 0 0 1 622.2275 1940.0879)" fill="#FFFFFF" font-family="'Exo-Bold'" font-size="14.0046">Name:</text>
	<text transform="matrix(1 0 0 1 622.2275 2017.8906)" fill="#FFFFFF" font-family="'Exo-Bold'" font-size="14.0046">Message:</text>
	<rect x="694.66" y="1927.067" fill-rule="evenodd" clip-rule="evenodd" fill="#FFFFFF" width="149" height="18"/>
	<rect x="694.66" y="1965.067" fill-rule="evenodd" clip-rule="evenodd" fill="#FFFFFF" width="149" height="19"/>
	<rect x="694.66" y="2005.067" fill-rule="evenodd" clip-rule="evenodd" fill="#FFFFFF" width="149" height="77"/>
	<rect x="769.66" y="2104.067" fill-rule="evenodd" clip-rule="evenodd" fill="#036564" width="73" height="22"/>
	<text transform="matrix(1 0 0 1 698.6602 1893.0215)" fill="#FFFFFF" font-family="'Exo-Bold'" font-size="23">Ask me Anything</text>
	<text transform="matrix(1 0 0 1 790.6079 2119.1221)" fill="#FFFFFF" font-family="'Exo-Bold'" font-size="14.0046">Send</text>
	<rect x="1886.66" y="3217.067" fill-rule="evenodd" clip-rule="evenodd" fill="#00FF8B" width="73" height="22"/>
	<text transform="matrix(1 0 0 1 1907.6074 3232.1221)" fill="#FFFFFF" font-family="'Exo-Bold'" font-size="14.0046">Send</text>
	<polygon fill-rule="evenodd" clip-rule="evenodd" fill="#036564" points="593.66,2288.067 894.66,2223.233 894.66,2166.067 
		593.66,2110.067 	"/>
	<text transform="matrix(1 0 0 1 617.9033 2139.7275)" fill="#FFFFFF" font-family="'Exo-Bold'" font-size="20">or</text>
	<text transform="matrix(1 0 0 1 617.9033 2170.7344)" fill="#FFFFFF" font-family="'Exo-Bold'" font-size="20">Mail me...</text>
	<text transform="matrix(1 0 0 1 651.1602 2211.5664)" fill="#FFFFFF" font-family="'Exo-Bold'" font-size="16">ruttenmarijn1991@gmail.com</text>
	<rect x="594.66" y="438.067" fill="#221E1E" width="300" height="17"/>
	<circle fill="#036564" cx="744.65" cy="952.942" r="110"/>
	<ellipse fill-rule="evenodd" clip-rule="evenodd" fill="#036564" cx="514.91" cy="520.567" rx="9.25" ry="18"/>
	<ellipse fill-rule="evenodd" clip-rule="evenodd" fill="#FFFFFF" cx="514.91" cy="521.067" rx="6" ry="14.5"/>
	<ellipse fill-rule="evenodd" clip-rule="evenodd" fill="#036564" cx="514.91" cy="520.567" rx="3.25" ry="7.854"/>
	<ellipse fill-rule="evenodd" clip-rule="evenodd" fill="#036564" cx="828.91" cy="612.567" rx="9.25" ry="18"/>
	<ellipse fill-rule="evenodd" clip-rule="evenodd" fill="#FFFFFF" cx="828.91" cy="613.067" rx="6" ry="14.5"/>
	<ellipse fill-rule="evenodd" clip-rule="evenodd" fill="#036564" cx="828.91" cy="612.567" rx="3.25" ry="7.854"/>
	<image overflow="visible" width="200" height="200" xlink:href="me.png"  transform="matrix(1 0 0 1 644.6504 852.999)">
	</image>
	<g>
		<g>
			<polygon fill-rule="evenodd" clip-rule="evenodd" fill="none" stroke="#221E1E" stroke-miterlimit="10" points="829.084,613.415 
				824.66,613.413 824.661,613.882 817.6,617.854 822.02,617.854 829.082,613.88 			"/>
			<polygon fill-rule="evenodd" clip-rule="evenodd" fill="none" stroke="#221E1E" stroke-miterlimit="10" points="824.66,613.413 
				829.084,613.415 829.084,612.966 822.018,608.989 817.598,608.987 824.66,612.966 			"/>
		</g>
	</g>
	
		<line fill="none" stroke="#221E1E" stroke-width="2" stroke-linecap="round" stroke-miterlimit="10" x1="824.994" y1="613.421" x2="636.546" y2="613.421"/>
</g>
</svg>
