<?xml version="1.0" encoding="utf-8"?>
<!-- Generator: Adobe Illustrator 16.0.0, SVG Export Plug-In . SVG Version: 6.00 Build 0)  -->
<!DOCTYPE svg PUBLIC "-//W3C//DTD SVG 1.1//EN" "http://www.w3.org/Graphics/SVG/1.1/DTD/svg11.dtd">
<svg version="1.1" id="Layer_1" xmlns="http://www.w3.org/2000/svg" xmlns:xlink="http://www.w3.org/1999/xlink" x="0px" y="0px"
	 width="400px" height="400px" viewBox="0 0 400 400" enable-background="new 0 0 400 400" xml:space="preserve">
<g>
	<g>
		<path fill="#221F1E" d="M400.419,200c0,110.568-89.637,200.209-200.209,200.209C89.638,400.209,0,310.568,0,200
			C0,89.426,89.638-0.209,200.209-0.209C310.782-0.209,400.419,89.426,400.419,200z"/>
	</g>
	<circle fill="#FFFFFF" cx="200.208" cy="200" r="176.131"/>
	<g>
		<polygon fill-rule="evenodd" clip-rule="evenodd" fill="none" stroke="#221F1E" stroke-width="2.0332" points="260.024,259.844 
			265.882,265.697 266.497,265.084 281.113,269.174 275.265,263.315 260.645,259.226 		"/>
		<polygon fill-rule="evenodd" clip-rule="evenodd" fill="none" stroke="#221F1E" stroke-width="2.0332" points="265.882,265.697 
			260.024,259.844 259.433,260.442 263.526,275.059 269.38,280.913 265.285,266.294 		"/>
	</g>
	<g>
		<polygon fill-rule="evenodd" clip-rule="evenodd" fill="none" stroke="#221F1E" stroke-width="2.0332" points="254.199,254.017 
			260.058,259.873 260.675,259.258 275.291,263.346 269.437,257.491 254.822,253.396 		"/>
		<polygon fill-rule="evenodd" clip-rule="evenodd" fill="none" stroke="#221F1E" stroke-width="2.0332" points="260.058,259.873 
			254.199,254.017 253.607,254.609 257.697,269.229 263.554,275.084 259.465,260.468 		"/>
	</g>
	<g>
		<polygon fill-rule="evenodd" clip-rule="evenodd" fill="none" stroke="#221F1E" stroke-width="2.0332" points="265.882,265.697 
			271.737,271.558 272.355,270.938 286.974,275.03 281.119,269.17 266.497,265.084 		"/>
		<polygon fill-rule="evenodd" clip-rule="evenodd" fill="none" stroke="#221F1E" stroke-width="2.0332" points="271.737,271.558 
			265.882,265.697 265.285,266.294 269.38,280.913 275.235,286.769 271.142,272.155 		"/>
	</g>
	
		<polyline fill-rule="evenodd" clip-rule="evenodd" fill="none" stroke="#221F1E" stroke-width="4.3733" stroke-linecap="round" points="
		254.199,254.017 132.295,132.107 121.628,121.44 	"/>
	<g>
		<polygon fill-rule="evenodd" clip-rule="evenodd" fill="none" stroke="#221F1E" stroke-width="2.0332" points="114.037,113.845 
			119.894,119.706 120.514,119.084 135.126,123.174 129.272,117.321 114.657,113.231 		"/>
		<polygon fill-rule="evenodd" clip-rule="evenodd" fill="none" stroke="#221F1E" stroke-width="2.0332" points="119.894,119.706 
			114.037,113.845 113.446,114.438 117.534,129.063 123.388,134.92 119.303,120.298 		"/>
	</g>
	<g>
		<polygon fill-rule="evenodd" clip-rule="evenodd" fill="none" stroke="#221F1E" stroke-width="2.0332" points="140.366,259.818 
			134.513,265.672 135.126,266.29 131.032,280.909 136.894,275.055 140.984,260.437 		"/>
		<polygon fill-rule="evenodd" clip-rule="evenodd" fill="none" stroke="#221F1E" stroke-width="2.0332" points="134.513,265.672 
			140.366,259.818 139.769,259.224 125.151,263.315 119.294,269.17 133.916,265.076 		"/>
	</g>
	<g>
		<polygon fill-rule="evenodd" clip-rule="evenodd" fill="none" stroke="#221F1E" stroke-width="2.0332" points="146.19,253.992 
			140.337,259.848 140.954,260.468 136.865,275.08 142.717,269.229 146.811,254.613 		"/>
		<polygon fill-rule="evenodd" clip-rule="evenodd" fill="none" stroke="#221F1E" stroke-width="2.0332" points="140.337,259.848 
			146.19,253.992 145.597,253.397 130.979,257.487 125.122,263.346 139.744,259.258 		"/>
	</g>
	<g>
		<polygon fill-rule="evenodd" clip-rule="evenodd" fill="none" stroke="#221F1E" stroke-width="2.0332" points="134.513,265.672 
			128.652,271.53 129.272,272.147 125.18,286.767 131.038,280.909 135.126,266.29 		"/>
		<polygon fill-rule="evenodd" clip-rule="evenodd" fill="none" stroke="#221F1E" stroke-width="2.0332" points="128.652,271.53 
			134.513,265.672 133.916,265.076 119.294,269.17 113.437,275.026 128.057,270.932 		"/>
	</g>
	
		<polyline fill-rule="evenodd" clip-rule="evenodd" fill="none" stroke="#221F1E" stroke-width="4.3733" stroke-linecap="round" points="
		146.19,253.992 268.099,132.084 278.769,121.417 	"/>
	<g>
		<polygon fill-rule="evenodd" clip-rule="evenodd" fill="none" stroke="#221F1E" stroke-width="2.0332" points="286.364,113.827 
			280.503,119.683 281.122,120.302 277.03,134.917 282.887,129.063 286.977,114.445 		"/>
		<polygon fill-rule="evenodd" clip-rule="evenodd" fill="none" stroke="#221F1E" stroke-width="2.0332" points="280.503,119.683 
			286.364,113.827 285.766,113.235 271.146,117.325 265.287,123.178 279.906,119.091 		"/>
	</g>
	<g>
		<path fill="#221F1E" d="M138.351,222.33h-15.542l-11.778-18.471h-0.128v18.471H98.421v-48.019h18.657
			c5.011,0,9.042,1.233,12.101,3.695c3.058,2.461,4.583,6.156,4.583,11.081c0,3.438-0.92,6.409-2.767,8.914
			c-1.849,2.507-4.427,4.055-7.739,4.652L138.351,222.33z M110.902,195.837h1.211c1.145,0,2.216-0.074,3.215-0.223
			c0.995-0.146,1.91-0.437,2.735-0.86c0.831-0.424,1.487-1.039,1.979-1.847c0.485-0.805,0.73-1.826,0.73-3.055
			c0-1.233-0.246-2.249-0.73-3.059c-0.492-0.803-1.148-1.422-1.979-1.846c-0.825-0.424-1.74-0.71-2.735-0.86
			c-0.999-0.146-2.071-0.223-3.215-0.223h-1.211V195.837z"/>
	</g>
	<g>
		<path fill="#221F1E" d="M262.48,174.886h12.296l9.739,25.666l10.314-25.666h12.422l7.261,48.018h-12.481l-3.506-27.638h-0.127
			l-11.526,27.638h-4.966l-11.018-27.638h-0.129l-4.008,27.638h-12.419L262.48,174.886z"/>
	</g>
	<g>
		<g>
			<path fill="#FFFFFF" d="M191.394,150.921c-0.026-0.045-0.74-1.266-3.403-4.554c-1.32-0.999-1.382-1.023-3.839-1.997
				c-0.683-0.27-1.54-0.61-2.641-1.055l-3.213-1.299l1.813-0.419c-2.212-1.075-4.107-2.516-5.687-3.844l-6.206-5.219l4.077,1.875
				c-0.592-0.646-1.045-1.335-1.297-2.063l-0.539-1.558c-1.839-1.68-3.395-3.806-4.364-6.557l-1.874-5.318l1.963,2.23
				c-0.55-1.121-0.975-2.319-1.277-3.616l-0.92-3.951l2.781,2.954c0.484,0.514,0.934,1.002,1.359,1.469
				c-2.329-3.402-3.482-6.745-3.583-10.194l-0.148-5.063l2.223,4.551c0.521,1.066,1.113,2.12,1.76,3.153
				c-1.412-2.959-2.059-5.787-1.216-8.017l1.1-2.911l0.963,2.958c2.215,6.805,7.999,12.641,13.102,17.791
				c5.953,6.007,11.094,11.195,10.352,16.983c-1.258,6.218,0.694,12.753,0.714,12.818l2.995,9.845L191.394,150.921z"/>
			<path fill="#221F1E" d="M168.187,102.815c4.77,14.655,24.707,24.162,23.409,34.296c-1.314,6.482,0.752,13.275,0.752,13.275
				s-0.68-1.225-3.591-4.811c-1.932-1.462-1.376-1.067-6.835-3.273c0.105-0.024,0.222-0.034,0.35-0.034
				c0.664,0,1.611,0.274,2.597,0.274c0.568,0,1.149-0.091,1.695-0.378c-4.673-0.154-8.435-2.723-11.436-5.247
				c3.126,1.438,5.479,2.257,8.748,2.419c-5.475-1.702-10.854-4.485-11.844-7.347c2.229,1.582,6.427,3.886,9.362,3.886
				c0.365,0,0.711-0.036,1.031-0.113c-5.275-1.811-12.626-4.31-15.298-11.894c5.575,6.333,9.946,6.893,15.62,9.358
				c-9.928-5.128-15.185-9.124-16.774-15.947c5.481,5.822,6.623,8.4,15.88,12.208c-9.434-6.797-15.983-13.755-16.215-21.715
				c4.192,8.583,12.215,15.452,16.304,18.401C172.968,117.284,166.376,107.608,168.187,102.815 M168.34,96.222l-2.199,5.821
				c-0.139,0.367-0.243,0.746-0.315,1.135l-2.67-5.468l0.296,10.127c0.042,1.437,0.253,2.853,0.644,4.259l-2.093-2.223l1.54,6.614
				l-2.226-2.529l3.747,10.636c1.008,2.862,2.594,5.08,4.459,6.834l0.207,0.598l-8.422-3.875l12.412,10.438
				c1.013,0.852,2.151,1.748,3.417,2.573l-2.462,0.569l6.427,2.598c1.104,0.446,1.963,0.787,2.647,1.058
				c2.29,0.907,2.379,0.942,3.476,1.771c2.533,3.134,3.215,4.296,3.222,4.308l9.495,16.386l-5.502-18.102
				c-0.018-0.061-1.884-6.367-0.701-12.205l0.016-0.078l0.01-0.079c0.809-6.316-4.762-11.939-10.66-17.891
				c-5.017-5.063-10.704-10.802-12.838-17.359L168.34,96.222L168.34,96.222z"/>
		</g>
		<g>
			<path fill="#FFFFFF" d="M207.021,150.069c0.02-0.065,1.969-6.618,0.728-12.74c-0.755-5.866,4.387-11.054,10.339-17.061
				c5.104-5.149,10.887-10.986,13.102-17.791l0.964-2.958l1.099,2.911c0.843,2.23,0.195,5.059-1.217,8.017
				c0.648-1.033,1.24-2.087,1.761-3.153l2.225-4.555l-0.149,5.067c-0.102,3.452-1.257,6.796-3.588,10.201
				c0.427-0.469,0.879-0.96,1.365-1.476l2.78-2.953l-0.92,3.951c-0.302,1.299-0.729,2.498-1.279,3.621l1.966-2.232l-1.872,5.314
				c-0.969,2.752-2.526,4.879-4.364,6.559l-0.54,1.558c-0.253,0.728-0.707,1.417-1.299,2.063l4.086-1.879l-6.214,5.222
				c-1.581,1.329-3.478,2.77-5.689,3.845l1.813,0.419l-3.213,1.298c-1.096,0.443-1.95,0.782-2.631,1.051
				c-2.51,0.994-2.527,1.001-3.847,2c-2.701,3.334-3.397,4.543-3.404,4.556l-4.829,8.49L207.021,150.069z"/>
			<path fill="#221F1E" d="M232.229,102.815c1.811,4.793-4.782,14.469-13.754,23.358c4.089-2.949,12.111-9.818,16.303-18.401
				c-0.234,7.96-6.782,14.918-16.215,21.715c9.259-3.808,10.398-6.386,15.881-12.208c-1.589,6.823-6.847,10.818-16.772,15.947
				c5.672-2.465,10.044-3.025,15.62-9.358c-2.671,7.584-10.024,10.083-15.3,11.894c0.32,0.077,0.666,0.113,1.031,0.113
				c2.935,0,7.133-2.305,9.362-3.886c-0.993,2.862-6.37,5.646-11.844,7.347c3.268-0.162,5.62-0.981,8.747-2.419
				c-3.003,2.524-6.764,5.093-11.44,5.247c0.548,0.287,1.13,0.378,1.698,0.378c0.986,0,1.934-0.274,2.597-0.274
				c0.128,0,0.245,0.01,0.35,0.034c-5.46,2.207-4.902,1.811-6.834,3.273c-2.911,3.586-3.592,4.811-3.592,4.811
				s2.067-6.793,0.753-13.275C207.521,126.978,227.459,117.471,232.229,102.815 M234.778,107.773h0.005 M234.444,117.28h0.005
				 M233.292,123.868h0.005 M228.386,131.989h0.005 M225.289,136.917h0.005 M232.076,96.222l-1.926,5.917
				c-2.135,6.558-7.821,12.296-12.839,17.359c-5.898,5.952-11.47,11.574-10.66,17.891l0.01,0.079l0.017,0.078
				c1.19,5.872-0.684,12.142-0.702,12.204l-5.987,19.672l9.99-17.973l0,0c0,0,0.686-1.164,3.213-4.291
				c1.098-0.831,1.185-0.865,3.482-1.775c0.683-0.271,1.539-0.61,2.639-1.054l6.425-2.597l-2.461-0.569
				c1.267-0.825,2.406-1.721,3.42-2.573l12.427-10.445l-8.436,3.881l0.207-0.597c1.866-1.755,3.452-3.973,4.46-6.835l3.743-10.629
				l-2.225,2.527l1.541-6.617l-2.096,2.225c0.391-1.407,0.604-2.825,0.646-4.262l0.299-10.134l-2.673,5.473
				c-0.072-0.39-0.177-0.768-0.314-1.134L232.076,96.222L232.076,96.222z"/>
		</g>
	</g>
	<g>
		<path fill="#221F1E" d="M79.625,301.778l4.555-6.816l-0.135-0.659l-1.39-1.765l-0.42-0.047l-4.246,3.332l-1.514,1.949
			l-3.516-4.478l2.253-1.01l12.727-9.994l1.519-1.953l7.587,9.661l-0.604,5.051l-4.008,3.146l-4.628-0.556l-3.442,5.564
			l-1.223,3.053L79.625,301.778z M91.947,292.483l0.575-1.21l-0.34-1.645l-2.221-2.827l-0.42-0.051l-4.006,3.146l-0.051,0.421
			l2.221,2.831l1.517,0.714l1.31-0.272L91.947,292.483z"/>
		<path fill="#221F1E" d="M94.137,317.304l-5.145-5.03l-0.047-4.661l6.707-6.854l4.661-0.052l5.14,5.031l0.053,4.66l-6.706,6.856
			L94.137,317.304z M101.355,308.854l0.41-1.277l-0.439-1.267l-1.496-1.467l-1.276-0.41l-1.266,0.436l-4.192,4.288l-0.41,1.276
			l0.44,1.265l1.494,1.469l1.278,0.408l1.266-0.439L101.355,308.854z"/>
		<path fill="#221F1E" d="M108.542,329.299l-5.146-4.027l-0.559-4.628l5.907-7.551l4.629-0.563l5.142,4.027l-1.474,4.171
			l-1.569-2.369l-2.125-1.664l-1.313-0.264l-1.21,0.572l-3.419,4.364l-0.332,1.645l0.716,1.513l1.772,1.383l2.678,0.956
			L108.542,329.299z"/>
		<path fill="#221F1E" d="M120.948,337.468l0.931-2.067l1.433-5.991l-0.38-0.238l-2.273,0.531l-0.569,0.351l-1.821,2.926
			l-0.759,2.352l-4.323-2.691l1.773-1.719l8.865-14.249l0.76-2.353l3.816,2.376l-5.781,9.287l-0.359,0.299l5.777-1.341l1.457-1.212
			l4.2,2.608l0.094,0.413l-6.393,1.492l-1.874,9.248l0.007,2.827L120.948,337.468z"/>
		<path fill="#221F1E" d="M152.946,352.05l1.39-2.048l2.991-8.16l-0.147-1.33l-0.923-0.974l-0.983-0.361l-1.332,0.148l-1.219,1.15
			l-2.889,7.88l-0.26,2.452l-4.784-1.751l1.386-2.044l2.992-8.158l-0.149-1.332l-0.919-0.978l-0.987-0.361l-1.332,0.148
			l-1.217,1.153l-2.892,7.875l-0.259,2.46l-4.784-1.753l1.39-2.042l3.559-9.711l-0.266-2.331l4.736,0.139l-0.236,1.512l2.997-0.337
			l2.819,1.033l1.452,2.123l3.33-0.373l3.52,1.29l1.779,3.849l-3.713,10.129l-0.262,2.454L152.946,352.05z"/>
		<path fill="#221F1E" d="M177.467,343.814l-8.798,15l-3.194,2.088l-3.08-0.644l4.368-5.518l-1.617-13.502l-0.684-2.591l5.283,1.102
			l-0.789,2.287l0.879,7.531l-0.036,0.909l0.329-0.851l3.819-6.545l0.195-2.41l4.988,1.042L177.467,343.814z"/>
		<path fill="#221F1E" d="M207.825,345.695l-4.933,13.686l-2.847-0.062l-2.808-9.051l-0.129-0.905l-0.168,0.897l-3.187,8.926
			l-2.847-0.06l-4.354-13.881l-1.15-2.423l5.393,0.117l-0.351,2.39l2.108,6.788l0.131,0.901l0.168-0.897l2.389-6.694l-0.25-2.397
			l4.794,0.098l-0.348,2.391l2.104,6.787l0.133,0.903l0.166-0.894l2.39-6.698l-0.248-2.403l5.093,0.11L207.825,345.695z"/>
		<path fill="#221F1E" d="M215.587,351.318l0.195,1.635l0.924,1.397l1.575,0.571l3.807-0.46l2.484-1.2l-0.904,4.332l-7.974,0.952
			l-3.668-2.884l-1.134-9.519l2.884-3.665l6.55-0.781l3.661,2.888l0.678,5.65L215.587,351.318z M220.148,346.548l-0.737-1.12
			l-1.263-0.452l-1.484,0.178l-1.124,0.735l-0.449,1.263l0.173,1.49l5.063-0.606L220.148,346.548z"/>
		<path fill="#221F1E" d="M241.351,353.791l-4.22,1.048l-2.29-0.509l-0.764,1.272l-2.761,0.688l-4.636-18.615l-1.163-2.18
			l4.218-1.05l1.595,6.396l2.034-1.741l4.069-1.016l3.997,2.402l2.318,9.305L241.351,353.791z M237.938,343.21l-0.868-1.014
			l-1.31-0.294l-1.892,0.467l-1.018,0.875l-0.361,1.634l1.303,5.232l1.09,1.276l1.308,0.289l1.889-0.467l1.017-0.876l0.293-1.305
			L237.938,343.21z"/>
		<path fill="#221F1E" d="M259.857,347.373L259,346.422l-1.789,1.997l-3.903,1.539l-4.277-1.857l-3.519-8.92l1.861-4.277
			l4.041-1.597l2.336,0.206l-1.484-3.76l-1.438-2.012l4.182-1.646l7.039,17.841l1.433,2.008L259.857,347.373z M255.346,337.558
			l-1.248-1.118l-1.335-0.119l-1.814,0.717l-0.894,0.996l-0.119,1.332l2.202,5.58l0.994,0.892l1.336,0.122l1.81-0.717l0.897-1
			l0.146-1.665L255.346,337.558z"/>
		<path fill="#221F1E" d="M268.836,335.185l0.786,1.444l1.379,0.959l1.671-0.062l3.367-1.842l1.857-2.035l0.778,4.357l-7.049,3.849
			l-4.478-1.316l-4.592-8.417l1.313-4.468l5.787-3.161l4.47,1.313l2.728,4.997L268.836,335.185z M271.294,329.061l-1.099-0.769
			l-1.34,0.052l-1.318,0.717l-0.764,1.101l0.051,1.34l0.717,1.317l4.473-2.443L271.294,329.061z"/>
		<path fill="#221F1E" d="M290.721,330.071l-5.905,4.108l-3.415-2.55l2.65-0.751l3.146-2.191l0.483-0.885l-0.143-0.992l-0.429-0.616
			l-1.255-0.225l-3.5,1.524l-3.755-0.672l-1.883-2.706l0.825-4.587l5.284-3.682l3.422,2.55l-2.729,0.802l-2.458,1.711l-0.48,0.886
			l0.143,0.994l0.428,0.616l1.252,0.223l3.501-1.526l3.757,0.675l1.881,2.707L290.721,330.071z"/>
		<path fill="#221F1E" d="M288.341,309.522l-1.617,1.332l-1.689-0.164l-1.142-1.387l0.164-1.688l1.619-1.334l1.686,0.163
			l1.146,1.386L288.341,309.522z M296.806,325.457l-1.063-2.23l-6.571-7.98l-2.146-0.957l2.771-4.416l8.958,10.877l1.979,1.471
			L296.806,325.457z"/>
		<path fill="#221F1E" d="M304.778,299.39l11.007,11.034l-0.012,5.085l-3.986,3.979l-1.693,0.845l-3.116-1.551l2.543-1.269
			l2.55-2.54l0.423-1.271l-0.42-1.271l-1.802-1.804l-0.741,2.225l-2.865,2.856l-4.664-0.008l-5.921-5.94l0.006-5.085l2.863-2.856
			l2.544-0.841l-0.53-1.17l2.551-2.541L304.778,299.39z M304.031,304.158l-1.588-0.532l-1.272,0.42l-1.273,1.269l-0.426,1.273
			l0.422,1.269l3.811,3.821l1.268,0.428l1.276-0.424l1.271-1.27l0.429-1.269l-0.528-1.592L304.031,304.158z"/>
		<path fill="#221F1E" d="M324.327,297.271l-1.521-1.947l-6.853-5.348l-1.313-0.262l-1.212,0.573l-0.831,1.063l-0.262,1.313
			l0.72,1.512l6.612,5.165l2.258,1.004l-3.134,4.016l-1.521-1.95l-8.151-6.359l-2.297-0.467l1.589-4.464l1.361,0.686l0.599-2.956
			l2.119-2.72l4.206-0.514l8.505,6.636l2.258,1.004L324.327,297.271z"/>
	</g>
	<g>
		<path fill="#221F1E" d="M141.973,67.562c1.463-4.083,4.803-15.543,5.377-17.654l2.63,0.348c-0.377,4.405,1.437,8.589,1.57,11.713
			c0.847-1.222,1.71-2.832,2.295-4.496l0.111-0.296c0.464-0.047,1.138,0.208,1.478,0.593c-1.219,3.38-3.263,6.849-6.088,8.37
			c-0.025,0.011-0.043,0.048-0.072,0.058c-0.268,0.136-0.508,0.259-0.79,0.365c-2.659,1.01-4.088-1.137-4.088-1.137l1.461-1.646
			c0,0,0.796,0.916,1.779,0.546c2.771-1.054,0.09-6.256,0.088-9.716c-0.517,1.766-3.344,11.015-4.273,13.546
			C142.923,68.037,142.364,67.832,141.973,67.562z"/>
		<path fill="#221F1E" d="M161.452,54.971c0.453,0.051,1.109,0.351,1.433,0.69c-1.598,3.619-3.635,7.116-6.101,7.867
			c-2.407,0.73-3.914-1.036-3.325-3.626l2.847-12.199l2.981-0.903l-3.011,13.092c-0.328,1.387,0.184,1.731,0.841,1.534
			c1.318-0.403,2.812-3.019,4.203-6.165L161.452,54.971z M158.144,41.699c0.974-0.297,1.983,0.241,2.28,1.217
			c0.295,0.974-0.254,1.954-1.226,2.25c-0.978,0.295-1.947-0.223-2.247-1.197C156.655,42.993,157.168,41.994,158.144,41.699z"/>
		<path fill="#221F1E" d="M175.862,51.638c0.45,0.083,1.077,0.439,1.374,0.802c-1.873,3.482-4.174,6.815-6.69,7.374
			c-2.458,0.541-3.822-1.334-3.037-3.873l2.433-7.752c0.819-2.543-1.428-2.847-4.792,4.009l-2.865,9.134l-3.073,0.681l5.224-16.506
			l3.043-0.672l-0.703,2.242c1.175-1.916,2.395-2.922,3.709-3.211c1.699-0.377,3.327,1.013,2.521,3.614l-2.689,8.67
			c-0.433,1.354,0.049,1.742,0.721,1.591c1.347-0.299,3.036-2.791,4.668-5.823L175.862,51.638z"/>
		<path fill="#221F1E" d="M178.582,52.574c-1.109,2.678,0.171,3.724,2.076,3.486c2.169-0.279,4.761-2.688,6.664-5.553l0.18-0.266
			c0.44,0.127,1.031,0.533,1.294,0.924c-2.18,3.292-5.316,6.468-8.82,6.911c-3.658,0.465-5.703-2.356-4.186-5.901l2.534-5.97
			c1.022-2.422,2.849-3.985,5.347-4.299c2.524-0.318,4.401,1.616,3.095,4.682l-0.348,0.828l-2.524,0.321l0.349-0.831
			c1.438-3.443-1.777-3.548-3.176-0.263L178.582,52.574z"/>
		<path fill="#221F1E" d="M190.385,50.764l-0.278,0.548c-1.318,2.583-0.123,3.723,1.791,3.636c2.184-0.099,4.96-2.297,7.086-5.004
			l0.197-0.25c0.428,0.162,0.987,0.615,1.218,1.025c-2.437,3.11-5.809,6.025-9.344,6.19c-3.678,0.167-5.494-2.807-3.703-6.215
			l3.001-5.748c1.212-2.336,3.16-3.746,5.669-3.863c2.544-0.118,4.26,1.964,2.716,4.913l-0.411,0.802
			C196.182,50.943,192.43,51.506,190.385,50.764z M191.21,49.194c1.185,0.365,3.195,0.333,4.571-2.279l0.415-0.801
			c1.705-3.318-1.488-3.676-3.142-0.516L191.21,49.194z"/>
		<path fill="#221F1E" d="M218.588,47.417c2.196-2.971-0.707-4.676-3.112-1.395l-1.001,1.285l-3.16-0.319l1.365-1.91
			c4.108-5.849,12.285-2.111,8.246,3.659c-2.639,3.768-6.268,5.45-8.918,6.057l5.452,0.55l-1.358,1.879l-10.912-1.093l1.362-1.88
			C211.188,53.66,214.927,52.409,218.588,47.417z"/>
		<path fill="#221F1E" d="M224.452,49.592l2.016-2.322c2.364-2.715,4.368-3.296,6.724-2.838c2.88,0.566,3.992,3.928,1.511,6.771
			l-4.137,4.749c-5.159,5.919-13.379,1.898-7.877-4.354L224.452,49.592z M224.46,53.778c-2.448,2.816,0.96,3.973,2.886,1.785
			l5.228-5.967c2.478-2.813-0.186-4.832-3.044-1.605l-1.959,2.212L224.46,53.778z"/>
		<path fill="#221F1E" d="M239.442,48.865c2.279-0.135,4.316-0.183,6.65-1.174l0.413,2.948l-8.845,8.619l2.653,0.747l-1.721,1.693
			l-7.813-2.203l1.724-1.693l2.479,0.699l8.105-7.891c-1.097,0.249-2.299,0.318-3.54,0.308L239.442,48.865z"/>
		<path fill="#221F1E" d="M250.532,58.054c2.186,0.82,3.551,0.592,5.026-0.614c1.848-1.516,2.169-3.059,0.962-3.513
			c-0.729-0.271-1.943-0.022-3.319,1.094l-0.969,0.789l-2.974-1.112l1.273-1.089c2.775-2.291,4.849-2.54,7.097-1.698
			c3.168,1.189,2.786,4.95,0.384,6.925c-2.134,1.765-3.808,2.13-5.755,1.783c0.435,1.573,0.018,3.622-1.967,5.25
			c-3.097,2.55-6.037,2.282-7.971,1.554c-3.623-1.354-2.741-5.663,0.117-7.407l2.749,1.027c0,0-1.701,0.966-2.335,2.645
			c-0.66,1.771,1.767,3.413,5.125,0.673c2.406-1.979,2.384-4.225,0.755-4.837L250.532,58.054z"/>
	</g>
	<polygon fill="#221F1E" stroke="#FFFFFF" stroke-width="2.1867" stroke-miterlimit="10" points="200.198,278.176 187.891,284.651 
		190.246,270.939 180.283,261.228 194.049,259.224 200.198,246.748 206.37,259.224 220.137,261.228 210.163,270.939 212.52,284.651 
			"/>
</g>
</svg>
