<?xml version="1.0" encoding="utf-8"?>
<!-- Generator: Adobe Illustrator 18.1.1, SVG Export Plug-In . SVG Version: 6.00 Build 0)  -->
<!DOCTYPE svg PUBLIC "-//W3C//DTD SVG 1.1//EN" "http://www.w3.org/Graphics/SVG/1.1/DTD/svg11.dtd">
<svg version="1.1" id="Layer_1" xmlns="http://www.w3.org/2000/svg" xmlns:xlink="http://www.w3.org/1999/xlink" x="0px" y="0px"
	 viewBox="0 0 1062 560" enable-background="new 0 0 1062 560" xml:space="preserve">
<polyline fill="#036564" stroke="#FFFFFF" stroke-width="10" stroke-miterlimit="10" points="150.4,265.4 244.9,135.7 151.3,135.7 
	10,265.4 10,280 10,294.6 152.3,424.3 245.9,424.3 149.4,294.6 "/>
<g enable-background="new    ">
	<path fill="#221F1E" d="M467.9,173.4h40.7l37.6,136.7l37-136.7h40.6L640,358.8h-29.1L599,225l-36.4,133.8h-32.2L492.9,225
		l-10.7,133.8h-29.1L467.9,173.4z"/>
	<path fill="#221F1E" d="M718.4,223.3c36.3,0,55,3.9,55,48.5c0,22.3-12.2,32.7-36.5,32.7h-47.9c0,27,8,30.7,27.4,30.7
		c21.5,0,35.5,0.2,54.5-2.6V353c-19.5,6.6-45.8,7.1-66.9,7.1c-34.2,0-44.3-18.6-44.3-69.1C659.7,232.3,676.2,223.3,718.4,223.3z
		 M731.1,281.6c8.8,0,12.9-3.8,12.9-10.9c0-20.5-3.4-23.3-24.2-23.3c-22.3,0-31,0.8-30.8,34.2H731.1z"/>
	<path fill="#221F1E" d="M794.8,224.3h22.9l6.5,14.8c13-8.5,24.7-17.1,45.2-17.1c29.7,0,40.6,21.3,40.6,45.7v91h-29.4v-91.4
		c0-14.6-7.4-20.4-17.7-20.4c-16.4,0-25,4.2-38.7,12.7v99.2h-29.4V224.3z"/>
	<path fill="#221F1E" d="M931.2,224.3h29.4v91.4c0,14.6,7.4,20.4,17.7,20.4c16.5,0,25-4.2,38.7-12.7v-99.2h29.4v134.5h-22.9
		L1017,344c-14.1,8.3-24.7,17.1-45.2,17.1c-29.7,0-40.6-21.3-40.6-45.7V224.3z"/>
</g>
</svg>
