<?xml version="1.0" encoding="utf-8"?>
<!-- Generator: Adobe Illustrator 16.0.0, SVG Export Plug-In . SVG Version: 6.00 Build 0)  -->
<!DOCTYPE svg PUBLIC "-//W3C//DTD SVG 1.1//EN" "http://www.w3.org/Graphics/SVG/1.1/DTD/svg11.dtd">
<svg version="1.1" id="Layer_1" xmlns="http://www.w3.org/2000/svg" xmlns:xlink="http://www.w3.org/1999/xlink" x="0px" y="0px"
	 width="17px" height="14px" viewBox="0 0 17 14" enable-background="new 0 0 17 14" xml:space="preserve">
<path fill="#FFFFFF" d="M6.648,13.663c-0.66,0-2.041-0.058-2.087-0.062c-1.333-0.136-2.582-0.539-3.75-1.19
	c-0.114-0.063-0.255-0.104-0.336-0.248c0.847,0.062,1.654,0.002,2.465-0.195c0.806-0.196,1.483-0.627,2.175-1.041
	c0.082-0.05,0.247-0.092,0.179-0.231c-0.069-0.146-0.152,0.063-0.243,0.029C5,10.706,4.942,10.706,4.888,10.695
	c-1.162-0.182-1.965-0.85-2.506-1.863C2.209,8.51,2.256,8.454,2.647,8.462C2.959,8.467,3.273,8.475,3.65,8.354
	C3.168,8.209,2.752,8.064,2.426,7.805c-0.737-0.591-1.237-1.346-1.374-2.31c-0.047-0.334,0.02-0.41,0.341-0.314
	c0.346,0.104,0.669,0.318,1.085,0.191c-0.284-0.188-0.501-0.43-0.694-0.678C1.039,3.74,0.873,2.665,1.253,1.522
	c0.179-0.536,0.141-0.666,0.656-0.15c0.64,0.643,1.293,1.258,2.088,1.713C5.268,3.817,6.61,4.3,8.08,4.429
	C8.424,4.456,8.469,4.35,8.42,4.062c-0.274-1.591,1.059-3.431,2.768-3.645c0.121-0.015,0.724-0.146,1.246-0.04
	c0.553,0.115,1.049,0.377,1.477,0.756c0.193,0.174,0.395,0.271,0.675,0.168c0.495-0.18,1.029-0.257,1.478-0.567
	c0.072-0.05,0.147-0.128,0.273-0.097c-0.036,0.115-0.07,0.227-0.104,0.338c-0.121,0.193-0.24,0.391-0.359,0.585
	c-0.32,0.204-0.479,0.567-0.789,0.786c0.398-0.001,0.771-0.101,1.146-0.194c0.021,0,0.043-0.001,0.064-0.001
	c0.143,0.041,0.342,0.053,0.152,0.277c-0.359,0.35-0.708,0.709-1.084,1.041c-0.146,0.129-0.219,0.241-0.215,0.44
	c0.02,1.005-0.129,1.987-0.424,2.95c-0.515,1.668-1.404,3.105-2.656,4.321c-0.088,0.077-0.176,0.157-0.262,0.235
	c-0.82,0.69-1.732,1.228-2.72,1.64c-0.143,0.073-0.924,0.272-1.017,0.325C8.071,13.381,7.177,13.622,6.648,13.663z"/>
</svg>
