<?xml version="1.0" encoding="utf-8"?>
<!-- Generator: Adobe Illustrator 16.0.0, SVG Export Plug-In . SVG Version: 6.00 Build 0)  -->
<!DOCTYPE svg PUBLIC "-//W3C//DTD SVG 1.1//EN" "http://www.w3.org/Graphics/SVG/1.1/DTD/svg11.dtd">
<svg version="1.1" id="Layer_1" xmlns="http://www.w3.org/2000/svg" xmlns:xlink="http://www.w3.org/1999/xlink" x="0px" y="0px"
	 width="17px" height="14px" viewBox="0 0 17 14" enable-background="new 0 0 17 14" xml:space="preserve">
<path fill-rule="evenodd" clip-rule="evenodd" fill="#221F1E" d="M6.648,13.663c-0.66,0-2.041-0.057-2.087-0.062
	c-1.333-0.135-2.582-0.539-3.75-1.19c-0.114-0.063-0.255-0.105-0.336-0.248c0.847,0.062,1.654,0.002,2.465-0.195
	c0.806-0.197,1.483-0.627,2.175-1.041c0.082-0.05,0.247-0.092,0.179-0.232c-0.069-0.145-0.152,0.063-0.243,0.03
	C5,10.706,4.942,10.706,4.888,10.696c-1.162-0.182-1.965-0.85-2.506-1.864c-0.173-0.322-0.126-0.378,0.265-0.37
	C2.959,8.467,3.273,8.474,3.65,8.354C3.168,8.209,2.752,8.065,2.426,7.805C1.689,7.214,1.189,6.459,1.052,5.495
	c-0.047-0.334,0.02-0.41,0.341-0.314c0.346,0.104,0.669,0.318,1.085,0.191c-0.284-0.188-0.501-0.43-0.694-0.678
	C1.039,3.74,0.873,2.665,1.253,1.522c0.179-0.536,0.141-0.666,0.656-0.15c0.64,0.643,1.293,1.258,2.088,1.713
	c1.271,0.732,2.613,1.215,4.083,1.344C8.424,4.456,8.469,4.35,8.42,4.062c-0.274-1.591,1.059-3.431,2.767-3.645
	c0.122-0.015,0.724-0.146,1.246-0.04c0.553,0.115,1.049,0.377,1.477,0.756c0.194,0.174,0.395,0.271,0.675,0.168
	c0.495-0.18,1.029-0.257,1.477-0.567c0.073-0.05,0.148-0.128,0.274-0.097c-0.036,0.115-0.07,0.227-0.104,0.338
	c-0.12,0.193-0.24,0.391-0.359,0.585c-0.32,0.204-0.478,0.567-0.789,0.786c0.398-0.001,0.771-0.101,1.146-0.194
	c0.021,0,0.043-0.001,0.065-0.001c0.143,0.041,0.342,0.053,0.152,0.277c-0.359,0.35-0.708,0.709-1.084,1.041
	c-0.146,0.129-0.218,0.241-0.215,0.44c0.02,1.005-0.129,1.987-0.424,2.95c-0.514,1.668-1.404,3.105-2.656,4.32
	c-0.088,0.078-0.175,0.158-0.262,0.236c-0.819,0.691-1.732,1.227-2.719,1.639c-0.143,0.074-0.924,0.273-1.017,0.326
	C8.071,13.381,7.177,13.622,6.648,13.663z"/>
</svg>
